<svg width="54" height="55" viewBox="0 0 54 55" fill="none" xmlns="http://www.w3.org/2000/svg">
<path fill-rule="evenodd" clip-rule="evenodd" d="M8.13889 10.7956L49.1429 25.3151L49.1429 25.3151C49.143 25.3151 49.143 25.3151 49.143 25.3151C50.4346 25.7724 51.0825 27.4667 50.5901 29.0993C50.0978 30.7319 48.6516 31.6846 47.36 31.2273C47.3581 31.2266 47.3562 31.2259 47.3543 31.2252L6.35596 16.7078L8.13889 10.7956Z" fill="#38A169"/>
<path d="M7.23205 24.7769L7.23207 49.4976" stroke="#38A169"/>
<path d="M52.3492 44.5841C52.1015 42.0487 49.9714 36.7075 43.4326 35.6257" stroke="#38A169" stroke-width="2"/>
<rect width="24.3348" height="7.6062" rx="1" transform="matrix(-1 0 0 1 51.8774 46.4214)" fill="#38A169"/>
<path d="M29.0252 22.4732L25.6398 21.4342L13.7713 53.9784L17.479 53.9784L29.0252 22.4732Z" fill="#38A169"/>
<path d="M27.5426 20.6845L30.928 19.6455L43.5558 51.6236L39.6185 51.6236L27.5426 20.6845Z" fill="#38A169"/>
<rect x="5.29665" y="47.5009" width="4.23732" height="6.4774" rx="1" fill="#38A169"/>
<path d="M5.49438 12.3118C1.99247 20.3211 8.4529 5.54534 5.49438 12.3118C7.93441 6.73119 12.4673 3.9071 14.992 2.70754C15.7481 2.3483 16.4285 2.97697 16.1462 3.72302L8.03459 25.1604C7.72781 25.9711 6.61919 26.0911 6.2972 25.3259C5.10293 22.4877 3.42363 17.0479 5.49438 12.3118Z" fill="#38A169"/>
<rect x="22.2459" y="35.6257" width="13.7713" height="4.31827" fill="#38A169"/>
</svg>
