<svg width="60" height="60" viewBox="0 0 60 60" fill="none" xmlns="http://www.w3.org/2000/svg">
<rect x="0.5" y="0.5" width="59" height="59" rx="5.5" stroke="#CAC5C5"/>
<path d="M14.0568 35V26.2727H15.1136V34.0625H19.1705V35H14.0568ZM27.8306 30.6364C27.8306 31.5568 27.6644 32.3523 27.332 33.0227C26.9996 33.6932 26.5437 34.2102 25.9641 34.5739C25.3846 34.9375 24.7227 35.1193 23.9783 35.1193C23.234 35.1193 22.5721 34.9375 21.9925 34.5739C21.413 34.2102 20.957 33.6932 20.6246 33.0227C20.2923 32.3523 20.1261 31.5568 20.1261 30.6364C20.1261 29.7159 20.2923 28.9205 20.6246 28.25C20.957 27.5795 21.413 27.0625 21.9925 26.6989C22.5721 26.3352 23.234 26.1534 23.9783 26.1534C24.7227 26.1534 25.3846 26.3352 25.9641 26.6989C26.5437 27.0625 26.9996 27.5795 27.332 28.25C27.6644 28.9205 27.8306 29.7159 27.8306 30.6364ZM26.8079 30.6364C26.8079 29.8807 26.6815 29.2429 26.4286 28.723C26.1786 28.2031 25.8391 27.8097 25.4102 27.5426C24.984 27.2756 24.5067 27.142 23.9783 27.142C23.4499 27.142 22.9712 27.2756 22.5423 27.5426C22.1161 27.8097 21.7766 28.2031 21.5238 28.723C21.2738 29.2429 21.1488 29.8807 21.1488 30.6364C21.1488 31.392 21.2738 32.0298 21.5238 32.5497C21.7766 33.0696 22.1161 33.4631 22.5423 33.7301C22.9712 33.9972 23.4499 34.1307 23.9783 34.1307C24.5067 34.1307 24.984 33.9972 25.4102 33.7301C25.8391 33.4631 26.1786 33.0696 26.4286 32.5497C26.6815 32.0298 26.8079 31.392 26.8079 30.6364ZM35.5735 29C35.4798 28.7131 35.3562 28.456 35.2028 28.2287C35.0522 27.9986 34.8718 27.8026 34.6616 27.6406C34.4542 27.4787 34.2184 27.3551 33.9542 27.2699C33.69 27.1847 33.4002 27.142 33.0849 27.142C32.5678 27.142 32.0977 27.2756 31.6744 27.5426C31.2511 27.8097 30.9144 28.2031 30.6644 28.723C30.4144 29.2429 30.2894 29.8807 30.2894 30.6364C30.2894 31.392 30.4158 32.0298 30.6687 32.5497C30.9215 33.0696 31.2638 33.4631 31.6957 33.7301C32.1275 33.9972 32.6133 34.1307 33.1531 34.1307C33.6531 34.1307 34.0934 34.0241 34.4741 33.8111C34.8576 33.5952 35.1559 33.2912 35.369 32.8991C35.5849 32.5043 35.6928 32.0398 35.6928 31.5057L36.0167 31.5739H33.3917V30.6364H36.7156V31.5739C36.7156 32.2926 36.5621 32.9176 36.2553 33.4489C35.9513 33.9801 35.5309 34.392 34.994 34.6847C34.4599 34.9744 33.8462 35.1193 33.1531 35.1193C32.3803 35.1193 31.7013 34.9375 31.1161 34.5739C30.5337 34.2102 30.0792 33.6932 29.7525 33.0227C29.4286 32.3523 29.2667 31.5568 29.2667 30.6364C29.2667 29.946 29.359 29.3253 29.5437 28.7741C29.7312 28.2202 29.9954 27.7486 30.3363 27.3594C30.6772 26.9702 31.0806 26.6719 31.5465 26.4645C32.0124 26.2571 32.5252 26.1534 33.0849 26.1534C33.5451 26.1534 33.9741 26.223 34.3718 26.3622C34.7724 26.4986 35.1289 26.6932 35.4414 26.946C35.7567 27.196 36.0195 27.4957 36.2298 27.8452C36.44 28.1918 36.5849 28.5767 36.6644 29H35.5735ZM45.8892 30.6364C45.8892 31.5568 45.723 32.3523 45.3906 33.0227C45.0582 33.6932 44.6023 34.2102 44.0227 34.5739C43.4432 34.9375 42.7813 35.1193 42.0369 35.1193C41.2926 35.1193 40.6307 34.9375 40.0511 34.5739C39.4716 34.2102 39.0156 33.6932 38.6832 33.0227C38.3509 32.3523 38.1847 31.5568 38.1847 30.6364C38.1847 29.7159 38.3509 28.9205 38.6832 28.25C39.0156 27.5795 39.4716 27.0625 40.0511 26.6989C40.6307 26.3352 41.2926 26.1534 42.0369 26.1534C42.7813 26.1534 43.4432 26.3352 44.0227 26.6989C44.6023 27.0625 45.0582 27.5795 45.3906 28.25C45.723 28.9205 45.8892 29.7159 45.8892 30.6364ZM44.8665 30.6364C44.8665 29.8807 44.7401 29.2429 44.4872 28.723C44.2372 28.2031 43.8977 27.8097 43.4688 27.5426C43.0426 27.2756 42.5653 27.142 42.0369 27.142C41.5085 27.142 41.0298 27.2756 40.6009 27.5426C40.1747 27.8097 39.8352 28.2031 39.5824 28.723C39.3324 29.2429 39.2074 29.8807 39.2074 30.6364C39.2074 31.392 39.3324 32.0298 39.5824 32.5497C39.8352 33.0696 40.1747 33.4631 40.6009 33.7301C41.0298 33.9972 41.5085 34.1307 42.0369 34.1307C42.5653 34.1307 43.0426 33.9972 43.4688 33.7301C43.8977 33.4631 44.2372 33.0696 44.4872 32.5497C44.7401 32.0298 44.8665 31.392 44.8665 30.6364Z" fill="#E5E5E5"/>
</svg>
