<svg width="50" height="51" viewBox="0 0 50 51" fill="none" xmlns="http://www.w3.org/2000/svg">
<rect x="15.2391" y="5.15369" width="9.62397" height="39.7074" rx="1" fill="#D2D2D2"/>
<rect x="0.190369" y="19.4973" width="40.7367" height="5.24565" rx="1" fill="#D2D2D2"/>
<rect x="10.1207" y="43.9664" width="20.4953" height="6.8461" rx="1" fill="#D2D2D2"/>
<rect x="19.6789" y="3.21948" width="0.981201" height="6.19146" fill="#D2D2D2"/>
<ellipse cx="20.1695" cy="2.12824" rx="2.1698" ry="2.12824" fill="#D2D2D2"/>
<circle r="4.08791" transform="matrix(0.713912 0.700236 -0.713912 0.700236 33.7569 22.0588)" stroke="#595959"/>
<line y1="-0.5" x2="8.57881" y2="-0.5" transform="matrix(-0.711339 0.70275 -0.716475 -0.697712 36.4939 18.7142)" stroke="#595959"/>
<line y1="-0.5" x2="8.57881" y2="-0.5" transform="matrix(-0.713912 -0.700236 0.713912 -0.700236 37.3015 25.0074)" stroke="#595959"/>
<circle r="1.25696" transform="matrix(0.713912 0.700236 -0.713912 0.700236 33.7569 22.0588)" fill="#595959"/>
<circle r="7.2326" transform="matrix(0.713912 0.700236 -0.713912 0.700236 20.3684 34.6484)" stroke="#595959"/>
<line y1="-0.5" x2="14.459" y2="-0.5" transform="matrix(-0.711339 0.70275 -0.716475 -0.697712 24.9813 29.0112)" stroke="#595959"/>
<line y1="-0.5" x2="14.459" y2="-0.5" transform="matrix(-0.713912 -0.700236 0.713912 -0.700236 26.3425 39.618)" stroke="#595959"/>
<circle r="2.11852" transform="matrix(0.713912 0.700236 -0.713912 0.700236 20.3684 34.6484)" fill="#595959"/>
<circle r="4.93379" transform="matrix(0.713912 0.700236 -0.713912 0.700236 20.0511 11.4959)" stroke="#595959"/>
<line y1="-0.5" x2="10.1605" y2="-0.5" transform="matrix(-0.711339 0.70275 -0.716475 -0.697712 23.2927 7.53455)" stroke="#595959"/>
<line y1="-0.5" x2="10.1605" y2="-0.5" transform="matrix(-0.713912 -0.700236 0.713912 -0.700236 24.2492 14.9881)" stroke="#595959"/>
<circle r="1.48871" transform="matrix(0.713912 0.700236 -0.713912 0.700236 20.0511 11.4958)" fill="#595959"/>
<circle r="4.08791" transform="matrix(0.713912 0.700236 -0.713912 0.700236 6.55072 22.0588)" stroke="#595959"/>
<line y1="-0.5" x2="8.57881" y2="-0.5" transform="matrix(-0.711339 0.70275 -0.716475 -0.697712 9.28766 18.7142)" stroke="#595959"/>
<line y1="-0.5" x2="8.57881" y2="-0.5" transform="matrix(-0.713912 -0.700236 0.713912 -0.700236 10.0953 25.0074)" stroke="#595959"/>
<circle r="1.25696" transform="matrix(0.713912 0.700236 -0.713912 0.700236 6.55072 22.0588)" fill="#595959"/>
<path d="M41 22H44.9077C46.0123 22 46.9077 22.8954 46.9077 24V43C46.9077 44.1046 47.8031 45 48.9077 45H53" stroke="#D2D2D2" stroke-width="2"/>
</svg>
