<svg width="59" height="52" viewBox="0 0 59 52" fill="none" xmlns="http://www.w3.org/2000/svg">
<rect x="44" y="3" width="14.0125" height="49" rx="1" fill="#38A169"/>
<rect x="45.944" y="17.9731" width="10.1245" height="6.85002" rx="1" fill="white"/>
<ellipse cx="48.5038" cy="21.3981" rx="1.04675" ry="1.18247" fill="#38A169"/>
<ellipse cx="53.7288" cy="21.3981" rx="1.04675" ry="1.18247" fill="#FF0000"/>
<rect x="15.3817" y="5.12723" width="10.2544" height="39.9923" rx="1" fill="#38A169"/>
<rect x="1.02544" y="19.4834" width="41.0177" height="6.15266" rx="1" fill="#38A169"/>
<rect x="10.1967" y="44.5083" width="20.6491" height="7.02029" rx="1" fill="#38A169"/>
<rect x="20.2015" y="3.15231" width="1.02286" height="6.1268" fill="#38A169"/>
<ellipse cx="20.7082" cy="2.18238" rx="2.18608" ry="2.18238" fill="#38A169"/>
<circle r="4.73797" transform="matrix(0.707705 0.706508 -0.707705 0.706508 36.1263 22.783)" stroke="#595959"/>
<line y1="-0.5" x2="9.79434" y2="-0.5" transform="matrix(-0.705155 0.709045 -0.710246 -0.703962 39.2239 18.9303)" stroke="#595959"/>
<line y1="-0.5" x2="9.79434" y2="-0.5" transform="matrix(-0.707705 -0.706508 0.707705 -0.706508 40.1379 26.1795)" stroke="#595959"/>
<circle r="1.43506" transform="matrix(0.707705 0.706508 -0.707705 0.706508 36.1263 22.7829)" fill="#595959"/>
<circle r="4.73797" transform="matrix(0.707705 0.706508 -0.707705 0.706508 7.41386 22.783)" stroke="#595959"/>
<line y1="-0.5" x2="9.79434" y2="-0.5" transform="matrix(-0.705155 0.709045 -0.710246 -0.703962 10.5114 18.9303)" stroke="#595959"/>
<line y1="-0.5" x2="9.79434" y2="-0.5" transform="matrix(-0.707705 -0.706508 0.707705 -0.706508 11.4255 26.1795)" stroke="#595959"/>
<circle r="1.43506" transform="matrix(0.707705 0.706508 -0.707705 0.706508 7.41386 22.7829)" fill="#595959"/>
<circle r="7.53128" transform="matrix(0.707705 0.706508 -0.707705 0.706508 20.5966 34.9335)" stroke="#595959"/>
<line y1="-0.5" x2="15.0175" y2="-0.5" transform="matrix(-0.705155 0.709045 -0.710246 -0.703962 25.346 29.0262)" stroke="#595959"/>
<line y1="-0.5" x2="15.0175" y2="-0.5" transform="matrix(-0.707705 -0.706508 0.707705 -0.706508 26.7475 40.1413)" stroke="#595959"/>
<circle r="2.20035" transform="matrix(0.707705 0.706508 -0.707705 0.706508 20.5966 34.9335)" fill="#595959"/>
<circle r="5.44235" transform="matrix(0.707705 0.706508 -0.707705 0.706508 20.7162 12.4984)" stroke="#595959"/>
<line y1="-0.5" x2="11.1115" y2="-0.5" transform="matrix(-0.705155 0.709045 -0.710246 -0.703962 24.2303 8.12759)" stroke="#595959"/>
<line y1="-0.5" x2="11.1115" y2="-0.5" transform="matrix(-0.707705 -0.706508 0.707705 -0.706508 25.2673 16.3517)" stroke="#595959"/>
<circle r="1.62804" transform="matrix(0.707705 0.706508 -0.707705 0.706508 20.7162 12.4984)" fill="#595959"/>
</svg>
