<svg width="60" height="52" viewBox="0 0 60 52" fill="none" xmlns="http://www.w3.org/2000/svg">
<rect x="24.7358" y="5.52417" width="9.4556" height="39.7074" rx="1" fill="#38A169"/>
<rect x="11.8533" y="19.8677" width="34.4892" height="5.24565" rx="1" fill="#38A169"/>
<rect x="8" y="37" width="44" height="5" rx="1" fill="#38A169"/>
<rect x="20" y="45" width="20" height="7" rx="1" fill="#38A169"/>
<rect x="28.9649" y="3.80664" width="0.997484" height="5.97478" fill="#38A169"/>
<ellipse cx="29.5071" cy="2.12824" rx="2.13184" ry="2.12824" fill="#38A169"/>
<circle r="4.04717" transform="matrix(0.707705 0.706508 -0.707705 0.706508 40.6275 22.4905)" stroke="#595959"/>
<line y1="-0.5" x2="8.50265" y2="-0.5" transform="matrix(-0.705155 0.709045 -0.710246 -0.703962 43.3166 19.1459)" stroke="#595959"/>
<line y1="-0.5" x2="8.50265" y2="-0.5" transform="matrix(-0.707705 -0.706508 0.707705 -0.706508 44.1101 25.4391)" stroke="#595959"/>
<circle r="1.2458" transform="matrix(0.707705 0.706508 -0.707705 0.706508 40.6275 22.4905)" fill="#595959"/>
<circle r="7.16395" transform="matrix(0.707705 0.706508 -0.707705 0.706508 29.7753 35.0189)" stroke="#595959"/>
<line y1="-0.5" x2="14.3306" y2="-0.5" transform="matrix(-0.705155 0.709045 -0.710246 -0.703962 34.3076 29.3817)" stroke="#595959"/>
<line y1="-0.5" x2="14.3306" y2="-0.5" transform="matrix(-0.707705 -0.706508 0.707705 -0.706508 35.6449 39.9885)" stroke="#595959"/>
<circle r="2.09971" transform="matrix(0.707705 0.706508 -0.707705 0.706508 29.7753 35.0189)" fill="#595959"/>
<circle r="4.88555" transform="matrix(0.707705 0.706508 -0.707705 0.706508 29.4636 11.8663)" stroke="#595959"/>
<line y1="-0.5" x2="10.0703" y2="-0.5" transform="matrix(-0.705155 0.709045 -0.710246 -0.703962 32.6485 7.90503)" stroke="#595959"/>
<line y1="-0.5" x2="10.0703" y2="-0.5" transform="matrix(-0.707705 -0.706508 0.707705 -0.706508 33.5883 15.3586)" stroke="#595959"/>
<circle r="1.47549" transform="matrix(0.707705 0.706508 -0.707705 0.706508 29.4636 11.8663)" fill="#595959"/>
<circle r="4.04717" transform="matrix(0.707705 0.706508 -0.707705 0.706508 17.7662 22.4905)" stroke="#595959"/>
<line y1="-0.5" x2="8.50265" y2="-0.5" transform="matrix(-0.705155 0.709045 -0.710246 -0.703962 20.4552 19.1459)" stroke="#595959"/>
<line y1="-0.5" x2="8.50265" y2="-0.5" transform="matrix(-0.707705 -0.706508 0.707705 -0.706508 21.2487 25.4391)" stroke="#595959"/>
<circle r="1.2458" transform="matrix(0.707705 0.706508 -0.707705 0.706508 17.7662 22.4905)" fill="#595959"/>
<circle r="4.04717" transform="matrix(0.707705 0.706508 -0.707705 0.706508 14.4361 39.4266)" stroke="#595959"/>
<line y1="-0.5" x2="8.50265" y2="-0.5" transform="matrix(-0.705155 0.709045 -0.710246 -0.703962 17.1252 36.082)" stroke="#595959"/>
<line y1="-0.5" x2="8.50265" y2="-0.5" transform="matrix(-0.707705 -0.706508 0.707705 -0.706508 17.9187 42.3752)" stroke="#595959"/>
<circle r="1.2458" transform="matrix(0.707705 0.706508 -0.707705 0.706508 14.4361 39.4266)" fill="#595959"/>
<circle r="4.04717" transform="matrix(0.707705 0.706508 -0.707705 0.706508 45.6187 39.3716)" stroke="#595959"/>
<line y1="-0.5" x2="8.50265" y2="-0.5" transform="matrix(-0.705155 0.709045 -0.710246 -0.703962 48.3078 36.0269)" stroke="#595959"/>
<line y1="-0.5" x2="8.50265" y2="-0.5" transform="matrix(-0.707705 -0.706508 0.707705 -0.706508 49.1013 42.3201)" stroke="#595959"/>
<circle r="1.2458" transform="matrix(0.707705 0.706508 -0.707705 0.706508 45.6187 39.3715)" fill="#595959"/>
<path d="M46 22H53.0021C54.1066 22 55.0021 22.8954 55.0021 24V44C55.0021 45.1046 55.8975 46 57.0021 46H61" stroke="#38A169" stroke-width="2"/>
<path d="M8 40H7.63559C6.53102 40 5.63559 40.8954 5.63559 42V43C5.63559 44.1046 4.74016 45 3.63559 45H-1" stroke="#FF0000" stroke-width="2"/>
</svg>
