<svg width="100%" height="100%" viewBox="0 0 70 392" fill="none" xmlns="http://www.w3.org/2000/svg">
<path d="M1 1H64.0394V3.90267H59.5514C57.6915 3.90213 55.8496 4.16527 54.1311 4.67703C52.4127 5.18866 50.8511 5.93902 49.5358 6.88496C48.2207 7.83104 47.1776 8.95413 46.4663 10.1903C45.7548 11.4264 45.389 12.7513 45.3897 14.0891V37.3376H19.6686V14.0891C19.6693 12.7513 19.3035 11.4264 18.592 10.1903C17.8807 8.95413 16.8375 7.83104 15.5224 6.88496C14.2072 5.93902 12.6458 5.18866 10.9272 4.67703C9.2087 4.16527 7.36674 3.90213 5.50686 3.90267H1V1Z" fill="url(#paint0_linear_107_60)" stroke="black" stroke-width="0.25" stroke-linecap="round" stroke-linejoin="round"/>
<path d="M46.5589 37.3512H18.4806V43.3466H46.5589V37.3512Z" fill="url(#paint1_linear_107_60)" stroke="black" stroke-width="0.25" stroke-linecap="round" stroke-linejoin="round"/>
<path d="M59.3251 50.1555H56.6663V56.9917H59.3251V50.1555Z" fill="url(#paint2_linear_107_60)" stroke="black" stroke-width="0.25" stroke-linecap="round" stroke-linejoin="round"/>
<path d="M69.6783 48.5687V58.6466H67.9246H61.0794H59.3257V56.9918V50.1556V48.5687H69.6783Z" fill="url(#paint3_linear_107_60)" stroke="black" stroke-width="0.25" stroke-linecap="round" stroke-linejoin="round"/>
<path d="M67.924 58.6465H61.0789V62.0646H67.924V58.6465Z" fill="url(#paint4_linear_107_60)" stroke="black" stroke-width="0.25" stroke-linecap="round" stroke-linejoin="round"/>
<path d="M69.6783 62.0646V69.8367H67.9246H61.0794H59.3257V62.0646H61.0794H67.9246H69.6783Z" fill="url(#paint5_linear_107_60)" stroke="black" stroke-width="0.25" stroke-linecap="round" stroke-linejoin="round"/>
<path d="M67.924 69.8367H61.0789V76.8357H67.924V69.8367Z" fill="url(#paint6_linear_107_60)" stroke="black" stroke-width="0.25" stroke-linecap="round" stroke-linejoin="round"/>
<path d="M53.7246 89.2467H11.3337V92.0138H53.7246V89.2467Z" fill="url(#paint7_linear_107_60)" stroke="black" stroke-width="0.25" stroke-linecap="round" stroke-linejoin="round"/>
<path d="M56.6669 92.0138V96.4085H46.7103H18.3491H8.39258V92.0138H11.3343H53.7251H56.6669Z" fill="url(#paint8_linear_107_60)" stroke="black" stroke-width="0.25" stroke-linecap="round" stroke-linejoin="round"/>
<path d="M46.7097 96.4081H18.3486V102.43H46.7097V96.4081Z" fill="url(#paint9_linear_107_60)" stroke="black" stroke-width="0.25" stroke-linecap="round" stroke-linejoin="round"/>
<path d="M48.4074 113.634V122.044H16.652V102.431H18.3491H46.7103H48.4074V106.798V113.634Z" fill="url(#paint10_linear_107_60)" stroke="black" stroke-width="0.25" stroke-linecap="round" stroke-linejoin="round"/>
<path d="M51.0657 106.798H48.4069V113.634H51.0657V106.798Z" fill="url(#paint11_linear_107_60)" stroke="black" stroke-width="0.25" stroke-linecap="round" stroke-linejoin="round"/>
<path d="M61.4189 105.225V115.289H59.6651H52.82H51.0663V113.635V106.798V105.225H61.4189Z" fill="url(#paint12_linear_107_60)" stroke="black" stroke-width="0.25" stroke-linecap="round" stroke-linejoin="round"/>
<path d="M59.6646 115.289H52.8194V120.511H59.6646V115.289Z" fill="url(#paint13_linear_107_60)" stroke="black" stroke-width="0.25" stroke-linecap="round" stroke-linejoin="round"/>
<path d="M48.4074 122.044L40.4874 131.159H24.572L16.652 122.044H48.4074Z" fill="url(#paint14_linear_107_60)" stroke="black" stroke-width="0.25" stroke-linecap="round" stroke-linejoin="round"/>
<path d="M52.82 120.511H59.6651H61.4189V131.891H59.6651H52.82H51.0663V120.511H52.82Z" fill="url(#paint15_linear_107_60)" stroke="black" stroke-width="0.25" stroke-linecap="round" stroke-linejoin="round"/>
<path d="M59.6646 131.891H52.8194V138.89H59.6646V131.891Z" fill="url(#paint16_linear_107_60)" stroke="black" stroke-width="0.25" stroke-linecap="round" stroke-linejoin="round"/>
<path d="M40.4869 131.159H24.5714V174.862H40.4869V131.159Z" fill="url(#paint17_linear_107_60)" stroke="black" stroke-width="0.25" stroke-linecap="round" stroke-linejoin="round"/>
<path d="M51.3492 182.39V191.912H46.88V190.569V183.733V182.39H51.3492Z" fill="url(#paint18_linear_107_60)" stroke="black" stroke-width="0.25" stroke-linecap="round" stroke-linejoin="round"/>
<path d="M46.8794 183.733H44.8994V190.569H46.8794V183.733Z" fill="url(#paint19_linear_107_60)" stroke="black" stroke-width="0.25" stroke-linecap="round" stroke-linejoin="round"/>
<path d="M44.9 190.569V203.59H42.1846H22.8749H20.1594V174.862H24.572H40.4874H44.9V183.733V190.569Z" fill="url(#paint20_linear_107_60)" stroke="black" stroke-width="0.25" stroke-linecap="round" stroke-linejoin="round"/>
<path d="M42.1846 203.59V216.937H40.4875H24.572H22.8749V203.59H42.1846Z" fill="url(#paint21_linear_107_60)" stroke="black" stroke-width="0.25" stroke-linecap="round" stroke-linejoin="round"/>
<path d="M40.4869 216.937H24.5714V248.921H40.4869V216.937Z" fill="url(#paint22_linear_107_60)" stroke="black" stroke-width="0.25" stroke-linecap="round" stroke-linejoin="round"/>
<path d="M50.7263 257.507H44.8994V264.343H50.7263V257.507Z" fill="url(#paint23_linear_107_60)" stroke="black" stroke-width="0.25" stroke-linecap="round" stroke-linejoin="round"/>
<path d="M61.0794 255.92V265.984H59.3257H52.4806H50.7269V264.343V257.507V255.92H61.0794Z" fill="url(#paint24_linear_107_60)" stroke="black" stroke-width="0.25" stroke-linecap="round" stroke-linejoin="round"/>
<path d="M59.3251 265.984H52.48V271.22H59.3251V265.984Z" fill="url(#paint25_linear_107_60)" stroke="black" stroke-width="0.25" stroke-linecap="round" stroke-linejoin="round"/>
<path d="M61.0794 271.22V287.903H59.3257H52.4806H50.7269V271.22H52.4806H59.3257H61.0794Z" fill="url(#paint26_linear_107_60)" stroke="black" stroke-width="0.25" stroke-linecap="round" stroke-linejoin="round"/>
<path d="M59.3251 287.903H52.48V294.902H59.3251V287.903Z" fill="url(#paint27_linear_107_60)" stroke="black" stroke-width="0.25" stroke-linecap="round" stroke-linejoin="round"/>
<path d="M61.0794 294.902V306.988H59.3257H52.4806H50.7269V294.902H52.4806H59.3257H61.0794Z" fill="url(#paint28_linear_107_60)" stroke="black" stroke-width="0.25" stroke-linecap="round" stroke-linejoin="round"/>
<path d="M59.3251 306.988H52.48V313.987H59.3251V306.988Z" fill="url(#paint29_linear_107_60)" stroke="black" stroke-width="0.25" stroke-linecap="round" stroke-linejoin="round"/>
<path d="M44.9 264.343V277.649H42.1846H22.8749H20.1594V248.921H24.572H40.4874H44.9V257.507V264.343Z" fill="url(#paint30_linear_107_60)" stroke="black" stroke-width="0.25" stroke-linecap="round" stroke-linejoin="round"/>
<path d="M42.1846 277.649V290.996H40.4875H24.572H22.8749V277.649H42.1846Z" fill="url(#paint31_linear_107_60)" stroke="black" stroke-width="0.25" stroke-linecap="round" stroke-linejoin="round"/>
<path d="M40.4869 290.996H24.5714V322.979H40.4869V290.996Z" fill="url(#paint32_linear_107_60)" stroke="black" stroke-width="0.25" stroke-linecap="round" stroke-linejoin="round"/>
<path d="M48.86 322.979V354.068H16.1994V322.979H24.572H40.4874H48.86Z" fill="url(#paint33_linear_107_60)" stroke="black" stroke-width="0.25" stroke-linecap="round" stroke-linejoin="round"/>
<path d="M48.86 354.068L56.4783 361.067H8.58115L16.1994 354.068H48.86Z" fill="url(#paint34_linear_107_60)" stroke="black" stroke-width="0.25" stroke-linecap="round" stroke-linejoin="round"/>
<path d="M56.6669 56.9917V89.2466H53.7251H11.3343H8.39258V43.3464H18.4811H46.5594H56.6669V50.1555V56.9917Z" fill="url(#paint35_linear_107_60)" stroke="black" stroke-width="0.25" stroke-linecap="round" stroke-linejoin="round"/>
<path d="M57.0434 361.067H8.01486V390.907H57.0434V361.067Z" fill="url(#paint36_linear_107_60)" stroke="black" stroke-width="0.25" stroke-linecap="round" stroke-linejoin="round"/>
<defs>
<linearGradient id="paint0_linear_107_60" x1="1.09787" y1="19.343" x2="64.059" y2="19.343" gradientUnits="userSpaceOnUse">
<stop stop-color="#6B6B6B"/>
<stop offset="0.5" stop-color="#E0E0E0"/>
<stop offset="1" stop-color="#6B6B6B"/>
</linearGradient>
<linearGradient id="paint1_linear_107_60" x1="18.5242" y1="40.3776" x2="46.5676" y2="40.3776" gradientUnits="userSpaceOnUse">
<stop stop-color="#6B6B6B"/>
<stop offset="0.5" stop-color="#E0E0E0"/>
<stop offset="1" stop-color="#6B6B6B"/>
</linearGradient>
<linearGradient id="paint2_linear_107_60" x1="56.6704" y1="53.6064" x2="59.3259" y2="53.6064" gradientUnits="userSpaceOnUse">
<stop stop-color="#6B6B6B"/>
<stop offset="0.5" stop-color="#E0E0E0"/>
<stop offset="1" stop-color="#6B6B6B"/>
</linearGradient>
<linearGradient id="paint3_linear_107_60" x1="59.3417" y1="53.6559" x2="69.6815" y2="53.6559" gradientUnits="userSpaceOnUse">
<stop stop-color="#6B6B6B"/>
<stop offset="0.5" stop-color="#E0E0E0"/>
<stop offset="1" stop-color="#6B6B6B"/>
</linearGradient>
<linearGradient id="paint4_linear_107_60" x1="61.0894" y1="60.372" x2="67.9261" y2="60.372" gradientUnits="userSpaceOnUse">
<stop stop-color="#6B6B6B"/>
<stop offset="0.5" stop-color="#E0E0E0"/>
<stop offset="1" stop-color="#6B6B6B"/>
</linearGradient>
<linearGradient id="paint5_linear_107_60" x1="59.3417" y1="65.9879" x2="69.6815" y2="65.9879" gradientUnits="userSpaceOnUse">
<stop stop-color="#6B6B6B"/>
<stop offset="0.5" stop-color="#E0E0E0"/>
<stop offset="1" stop-color="#6B6B6B"/>
</linearGradient>
<linearGradient id="paint6_linear_107_60" x1="61.0894" y1="73.3697" x2="67.9261" y2="73.3697" gradientUnits="userSpaceOnUse">
<stop stop-color="#6B6B6B"/>
<stop offset="0.5" stop-color="#E0E0E0"/>
<stop offset="1" stop-color="#6B6B6B"/>
</linearGradient>
<linearGradient id="paint7_linear_107_60" x1="11.3996" y1="90.6434" x2="53.7378" y2="90.6434" gradientUnits="userSpaceOnUse">
<stop stop-color="#6B6B6B"/>
<stop offset="0.5" stop-color="#E0E0E0"/>
<stop offset="1" stop-color="#6B6B6B"/>
</linearGradient>
<linearGradient id="paint8_linear_107_60" x1="8.46763" y1="94.2322" x2="56.682" y2="94.2322" gradientUnits="userSpaceOnUse">
<stop stop-color="#6B6B6B"/>
<stop offset="0.5" stop-color="#E0E0E0"/>
<stop offset="1" stop-color="#6B6B6B"/>
</linearGradient>
<linearGradient id="paint9_linear_107_60" x1="18.3927" y1="99.4481" x2="46.7186" y2="99.4481" gradientUnits="userSpaceOnUse">
<stop stop-color="#6B6B6B"/>
<stop offset="0.5" stop-color="#E0E0E0"/>
<stop offset="1" stop-color="#6B6B6B"/>
</linearGradient>
<linearGradient id="paint10_linear_107_60" x1="16.7014" y1="112.332" x2="48.4172" y2="112.332" gradientUnits="userSpaceOnUse">
<stop stop-color="#6B6B6B"/>
<stop offset="0.5" stop-color="#E0E0E0"/>
<stop offset="1" stop-color="#6B6B6B"/>
</linearGradient>
<linearGradient id="paint11_linear_107_60" x1="48.411" y1="110.249" x2="51.0665" y2="110.249" gradientUnits="userSpaceOnUse">
<stop stop-color="#6B6B6B"/>
<stop offset="0.5" stop-color="#E0E0E0"/>
<stop offset="1" stop-color="#6B6B6B"/>
</linearGradient>
<linearGradient id="paint12_linear_107_60" x1="51.0823" y1="110.305" x2="61.4221" y2="110.305" gradientUnits="userSpaceOnUse">
<stop stop-color="#6B6B6B"/>
<stop offset="0.5" stop-color="#E0E0E0"/>
<stop offset="1" stop-color="#6B6B6B"/>
</linearGradient>
<linearGradient id="paint13_linear_107_60" x1="52.83" y1="117.925" x2="59.6667" y2="117.925" gradientUnits="userSpaceOnUse">
<stop stop-color="#6B6B6B"/>
<stop offset="0.5" stop-color="#E0E0E0"/>
<stop offset="1" stop-color="#6B6B6B"/>
</linearGradient>
<linearGradient id="paint14_linear_107_60" x1="16.7014" y1="126.645" x2="48.4172" y2="126.645" gradientUnits="userSpaceOnUse">
<stop stop-color="#6B6B6B"/>
<stop offset="0.5" stop-color="#E0E0E0"/>
<stop offset="1" stop-color="#6B6B6B"/>
</linearGradient>
<linearGradient id="paint15_linear_107_60" x1="51.0823" y1="126.256" x2="61.4221" y2="126.256" gradientUnits="userSpaceOnUse">
<stop stop-color="#6B6B6B"/>
<stop offset="0.5" stop-color="#E0E0E0"/>
<stop offset="1" stop-color="#6B6B6B"/>
</linearGradient>
<linearGradient id="paint16_linear_107_60" x1="52.83" y1="135.425" x2="59.6667" y2="135.425" gradientUnits="userSpaceOnUse">
<stop stop-color="#6B6B6B"/>
<stop offset="0.5" stop-color="#E0E0E0"/>
<stop offset="1" stop-color="#6B6B6B"/>
</linearGradient>
<linearGradient id="paint17_linear_107_60" x1="24.5961" y1="153.219" x2="40.4918" y2="153.219" gradientUnits="userSpaceOnUse">
<stop stop-color="#6B6B6B"/>
<stop offset="0.5" stop-color="#E0E0E0"/>
<stop offset="1" stop-color="#6B6B6B"/>
</linearGradient>
<linearGradient id="paint18_linear_107_60" x1="46.887" y1="187.197" x2="51.3505" y2="187.197" gradientUnits="userSpaceOnUse">
<stop stop-color="#6B6B6B"/>
<stop offset="0.5" stop-color="#E0E0E0"/>
<stop offset="1" stop-color="#6B6B6B"/>
</linearGradient>
<linearGradient id="paint19_linear_107_60" x1="44.9024" y1="187.183" x2="46.88" y2="187.183" gradientUnits="userSpaceOnUse">
<stop stop-color="#6B6B6B"/>
<stop offset="0.5" stop-color="#E0E0E0"/>
<stop offset="1" stop-color="#6B6B6B"/>
</linearGradient>
<linearGradient id="paint20_linear_107_60" x1="20.1979" y1="189.363" x2="44.9077" y2="189.363" gradientUnits="userSpaceOnUse">
<stop stop-color="#6B6B6B"/>
<stop offset="0.5" stop-color="#E0E0E0"/>
<stop offset="1" stop-color="#6B6B6B"/>
</linearGradient>
<linearGradient id="paint21_linear_107_60" x1="22.9049" y1="210.327" x2="42.1906" y2="210.327" gradientUnits="userSpaceOnUse">
<stop stop-color="#6B6B6B"/>
<stop offset="0.5" stop-color="#E0E0E0"/>
<stop offset="1" stop-color="#6B6B6B"/>
</linearGradient>
<linearGradient id="paint22_linear_107_60" x1="24.5961" y1="233.082" x2="40.4918" y2="233.082" gradientUnits="userSpaceOnUse">
<stop stop-color="#6B6B6B"/>
<stop offset="0.5" stop-color="#E0E0E0"/>
<stop offset="1" stop-color="#6B6B6B"/>
</linearGradient>
<linearGradient id="paint23_linear_107_60" x1="44.9085" y1="260.957" x2="50.7282" y2="260.957" gradientUnits="userSpaceOnUse">
<stop stop-color="#6B6B6B"/>
<stop offset="0.5" stop-color="#E0E0E0"/>
<stop offset="1" stop-color="#6B6B6B"/>
</linearGradient>
<linearGradient id="paint24_linear_107_60" x1="50.7429" y1="261.001" x2="61.0826" y2="261.001" gradientUnits="userSpaceOnUse">
<stop stop-color="#6B6B6B"/>
<stop offset="0.5" stop-color="#E0E0E0"/>
<stop offset="1" stop-color="#6B6B6B"/>
</linearGradient>
<linearGradient id="paint25_linear_107_60" x1="52.4906" y1="268.626" x2="59.3272" y2="268.626" gradientUnits="userSpaceOnUse">
<stop stop-color="#6B6B6B"/>
<stop offset="0.5" stop-color="#E0E0E0"/>
<stop offset="1" stop-color="#6B6B6B"/>
</linearGradient>
<linearGradient id="paint26_linear_107_60" x1="50.7429" y1="279.641" x2="61.0826" y2="279.641" gradientUnits="userSpaceOnUse">
<stop stop-color="#6B6B6B"/>
<stop offset="0.5" stop-color="#E0E0E0"/>
<stop offset="1" stop-color="#6B6B6B"/>
</linearGradient>
<linearGradient id="paint27_linear_107_60" x1="52.4906" y1="291.437" x2="59.3272" y2="291.437" gradientUnits="userSpaceOnUse">
<stop stop-color="#6B6B6B"/>
<stop offset="0.5" stop-color="#E0E0E0"/>
<stop offset="1" stop-color="#6B6B6B"/>
</linearGradient>
<linearGradient id="paint28_linear_107_60" x1="50.7429" y1="301.003" x2="61.0826" y2="301.003" gradientUnits="userSpaceOnUse">
<stop stop-color="#6B6B6B"/>
<stop offset="0.5" stop-color="#E0E0E0"/>
<stop offset="1" stop-color="#6B6B6B"/>
</linearGradient>
<linearGradient id="paint29_linear_107_60" x1="52.4906" y1="310.521" x2="59.3272" y2="310.521" gradientUnits="userSpaceOnUse">
<stop stop-color="#6B6B6B"/>
<stop offset="0.5" stop-color="#E0E0E0"/>
<stop offset="1" stop-color="#6B6B6B"/>
</linearGradient>
<linearGradient id="paint30_linear_107_60" x1="20.1979" y1="263.423" x2="44.9077" y2="263.423" gradientUnits="userSpaceOnUse">
<stop stop-color="#6B6B6B"/>
<stop offset="0.5" stop-color="#E0E0E0"/>
<stop offset="1" stop-color="#6B6B6B"/>
</linearGradient>
<linearGradient id="paint31_linear_107_60" x1="22.9049" y1="284.386" x2="42.1906" y2="284.386" gradientUnits="userSpaceOnUse">
<stop stop-color="#6B6B6B"/>
<stop offset="0.5" stop-color="#E0E0E0"/>
<stop offset="1" stop-color="#6B6B6B"/>
</linearGradient>
<linearGradient id="paint32_linear_107_60" x1="24.5961" y1="307.141" x2="40.4918" y2="307.141" gradientUnits="userSpaceOnUse">
<stop stop-color="#6B6B6B"/>
<stop offset="0.5" stop-color="#E0E0E0"/>
<stop offset="1" stop-color="#6B6B6B"/>
</linearGradient>
<linearGradient id="paint33_linear_107_60" x1="16.2502" y1="338.673" x2="48.8702" y2="338.673" gradientUnits="userSpaceOnUse">
<stop stop-color="#6B6B6B"/>
<stop offset="0.5" stop-color="#E0E0E0"/>
<stop offset="1" stop-color="#6B6B6B"/>
</linearGradient>
<linearGradient id="paint34_linear_107_60" x1="8.65544" y1="357.601" x2="56.4932" y2="357.601" gradientUnits="userSpaceOnUse">
<stop stop-color="#6B6B6B"/>
<stop offset="0.5" stop-color="#E0E0E0"/>
<stop offset="1" stop-color="#6B6B6B"/>
</linearGradient>
<linearGradient id="paint35_linear_107_60" x1="8.46763" y1="66.5165" x2="56.682" y2="66.5165" gradientUnits="userSpaceOnUse">
<stop stop-color="#6B6B6B"/>
<stop offset="0.5" stop-color="#E0E0E0"/>
<stop offset="1" stop-color="#6B6B6B"/>
</linearGradient>
<linearGradient id="paint36_linear_107_60" x1="8.09104" y1="376.129" x2="57.0587" y2="376.129" gradientUnits="userSpaceOnUse">
<stop stop-color="#6B6B6B"/>
<stop offset="0.5" stop-color="#E0E0E0"/>
<stop offset="1" stop-color="#6B6B6B"/>
</linearGradient>
</defs>
</svg>
