<svg width="51" height="54" viewBox="0 0 51 54" fill="none" xmlns="http://www.w3.org/2000/svg">
<rect x="14.5071" y="11.9423" width="9.16167" height="36.5756" rx="1" fill="#38A169"/>
<rect x="0.181198" y="25.1547" width="38.7799" height="4.83192" rx="1" fill="#38A169"/>
<rect x="10" y="47" width="19" height="7" rx="1" fill="#38A169"/>
<circle r="3.79874" transform="matrix(0.725335 0.688396 -0.725335 0.688396 32.1354 27.5142)" stroke="#595959"/>
<line y1="-0.5" x2="8.0381" y2="-0.5" transform="matrix(-0.722721 0.690868 -0.727939 -0.685915 34.7409 24.4333)" stroke="#595959"/>
<line y1="-0.5" x2="8.0381" y2="-0.5" transform="matrix(-0.725335 -0.688396 0.725335 -0.688396 35.5097 30.2302)" stroke="#595959"/>
<circle r="1.17774" transform="matrix(0.725335 0.688396 -0.725335 0.688396 32.1354 27.5142)" fill="#595959"/>
<circle r="6.74523" transform="matrix(0.725335 0.688396 -0.725335 0.688396 19.39 39.1108)" stroke="#595959"/>
<line y1="-0.5" x2="13.5477" y2="-0.5" transform="matrix(-0.722721 0.690868 -0.727939 -0.685915 23.7813 33.9182)" stroke="#595959"/>
<line y1="-0.5" x2="13.5477" y2="-0.5" transform="matrix(-0.725335 -0.688396 0.725335 -0.688396 25.0771 43.6884)" stroke="#595959"/>
<circle r="1.98499" transform="matrix(0.725335 0.688396 -0.725335 0.688396 19.39 39.1108)" fill="#595959"/>
<circle r="4.59131" transform="matrix(0.725335 0.688396 -0.725335 0.688396 19.0879 17.7843)" stroke="#595959"/>
<line y1="-0.5" x2="9.52011" y2="-0.5" transform="matrix(-0.722721 0.690868 -0.727939 -0.685915 22.1738 14.1355)" stroke="#595959"/>
<line y1="-0.5" x2="9.52011" y2="-0.5" transform="matrix(-0.725335 -0.688396 0.725335 -0.688396 23.0843 21.0011)" stroke="#595959"/>
<circle r="1.39488" transform="matrix(0.725335 0.688396 -0.725335 0.688396 19.0879 17.7843)" fill="#595959"/>
<circle r="3.79874" transform="matrix(0.725335 0.688396 -0.725335 0.688396 6.23604 27.5142)" stroke="#595959"/>
<line y1="-0.5" x2="8.0381" y2="-0.5" transform="matrix(-0.722721 0.690868 -0.727939 -0.685915 8.84154 24.4333)" stroke="#595959"/>
<line y1="-0.5" x2="8.0381" y2="-0.5" transform="matrix(-0.725335 -0.688396 0.725335 -0.688396 9.61037 30.2302)" stroke="#595959"/>
<circle r="1.17774" transform="matrix(0.725335 0.688396 -0.725335 0.688396 6.23604 27.5142)" fill="#595959"/>
<rect x="18.091" y="11.0801" width="1.58941" height="1.72436" fill="#38A169"/>
<rect x="15.2934" y="1.1134" width="6.97612" height="9.96675" rx="2" fill="#38A169"/>
<rect x="16.9143" width="3.63856" height="2.22677" rx="1" fill="#38A169"/>
<path d="M38 28H43.8018C44.9064 28 45.8018 28.8954 45.8018 30V50C45.8018 51.1046 46.6972 52 47.8018 52H51" stroke="#38A169" stroke-width="2"/>
</svg>
