<svg width="100" height="109" viewBox="0 0 100 109" fill="none" xmlns="http://www.w3.org/2000/svg">
<path d="M56.2612 97.936C56.8467 94.4415 54.3967 91.1486 50.7891 90.5812C47.1815 90.0138 43.7824 92.387 43.197 95.8827C42.6115 99.3766 45.0615 102.67 48.6691 103.237C52.2767 103.804 55.6759 101.431 56.2612 97.936Z" fill="url(#paint0_linear_1_66)"/>
<path d="M56.3465 62.9618C56.38 59.4213 53.4444 56.5247 49.7898 56.4923C46.1351 56.4599 43.1454 59.3035 43.1118 62.8439C43.0783 66.3844 46.0139 69.2808 49.6685 69.3132C53.3232 69.3456 56.313 66.5022 56.3465 62.9618Z" fill="url(#paint1_linear_1_66)"/>
<path d="M56.3466 28.9476C56.3694 25.4071 53.4251 22.5192 49.7704 22.4971C46.1156 22.4751 43.1345 25.3273 43.1117 28.8678C43.0889 32.4082 46.0333 35.2962 49.688 35.3182C53.3427 35.3403 56.3239 32.488 56.3466 28.9476Z" fill="url(#paint2_linear_1_66)"/>
<path d="M51.7309 0.105957H47.7945L47.3916 0.835018L47.7637 1.18103L47.4121 1.52704L47.7441 1.87305L47.4214 2.23713L47.774 2.54701L47.4121 2.89302L47.7544 3.2571L47.4121 3.60311L47.7544 3.93105L47.4019 4.27706L47.7544 4.605L47.3916 4.96909L47.774 5.29703L47.3916 5.66111L47.7544 5.97101H51.7915L52.0871 5.66111L51.7253 5.29251L52.0853 4.98986L51.7355 4.61313L52.0834 4.29332L51.7355 3.95003L52.0844 3.62479L51.729 3.25981L52.0806 2.91018L51.7318 2.56508L52.0806 2.23623L51.7244 1.87486L52.0731 1.53337L51.7383 1.18464L52.0759 0.833215L51.7309 0.105957Z" fill="url(#paint3_linear_1_66)"/>
<path d="M54.4827 6.2388H44.9965V8.18843H54.4827V6.2388Z" fill="url(#paint4_linear_1_66)"/>
<path d="M44.9967 6.23934H54.4829L54.1686 5.96378H45.3735L44.9967 6.23934Z" fill="url(#paint5_linear_1_66)"/>
<path d="M53.8128 8.18855H45.6667V16.6952H53.8128V8.18855Z" fill="url(#paint6_linear_1_66)"/>
<path d="M45.6681 16.6955H53.8198L54.8177 18.3181H44.6609L45.6681 16.6955Z" fill="url(#paint7_linear_1_66)"/>
<path d="M44.6619 108.025H54.8186L54.399 108.679H45.1012L44.6619 108.025Z" fill="url(#paint8_linear_1_66)"/>
<path d="M51.8029 9.55452H47.6772V15.3292H51.8029V9.55452Z" fill="url(#paint9_linear_1_66)"/>
<path d="M47.6775 9.55087H51.8004C51.1838 9.17108 50.4742 8.9565 49.7441 8.92934C49.0094 8.94902 48.2945 9.16401 47.6775 9.55087Z" fill="url(#paint10_linear_1_66)"/>
<path d="M47.6775 15.3293H51.8004C51.1838 15.7091 50.4742 15.9237 49.7441 15.9508C49.0094 15.9311 48.2945 15.7161 47.6775 15.3293Z" fill="url(#paint11_linear_1_66)"/>
<path d="M50.8246 29.0797C50.9228 28.4937 50.5119 27.9414 49.9069 27.8463C49.3018 27.7513 48.7319 28.1492 48.6337 28.7353C48.5356 29.3214 48.9464 29.8736 49.5514 29.9687C50.1564 30.0638 50.7264 29.6658 50.8246 29.0797Z" fill="url(#paint12_linear_1_66)"/>
<path d="M49.7291 28.3194C49.8492 28.3194 49.9666 28.354 50.0663 28.4185C50.1662 28.4831 50.244 28.575 50.29 28.6825C50.336 28.79 50.348 28.9082 50.3246 29.0223C50.3011 29.1364 50.2433 29.2412 50.1584 29.3234C50.0735 29.4056 49.9654 29.4617 49.8476 29.4844C49.7298 29.5071 49.6077 29.4954 49.4968 29.4509C49.3859 29.4064 49.291 29.331 49.2243 29.2343C49.1576 29.1376 49.122 29.0238 49.122 28.9076C49.1222 28.7517 49.1862 28.6021 49.2999 28.4919C49.4138 28.3816 49.5682 28.3196 49.7291 28.3194Z" fill="url(#paint13_linear_1_66)"/>
<path d="M50.8246 97.0811C50.9228 96.496 50.5119 95.9428 49.9069 95.8479C49.3018 95.7531 48.7319 96.1508 48.6337 96.737C48.5356 97.3233 48.9464 97.8753 49.5514 97.9702C50.1564 98.0662 50.7264 97.6674 50.8246 97.0811Z" fill="url(#paint14_linear_1_66)"/>
<path d="M49.7291 96.3217C49.8492 96.3217 49.9666 96.3558 50.0663 96.42C50.1662 96.4849 50.244 96.5774 50.29 96.6846C50.336 96.7924 50.348 96.9097 50.3246 97.0246C50.3011 97.1383 50.2433 97.2431 50.1584 97.325C50.0735 97.4075 49.9654 97.4635 49.8476 97.4859C49.7298 97.5083 49.6077 97.4971 49.4968 97.4523C49.3859 97.4081 49.291 97.3321 49.2243 97.2355C49.1576 97.1389 49.122 97.0251 49.122 96.9097C49.1222 96.7535 49.1862 96.6045 49.2999 96.4943C49.4138 96.3841 49.5682 96.3217 49.7291 96.3217Z" fill="url(#paint15_linear_1_66)"/>
<path d="M50.8246 63.0749C50.9228 62.4886 50.5119 61.9366 49.9069 61.8411C49.3018 61.7463 48.7319 62.1446 48.6337 62.7302C48.5356 63.3164 48.9464 63.8685 49.5514 63.964C50.1564 64.0588 50.7264 63.6611 50.8246 63.0749Z" fill="url(#paint16_linear_1_66)"/>
<path d="M49.7291 62.3142C49.8492 62.3142 49.9666 62.349 50.0663 62.4132C50.1662 62.478 50.244 62.5699 50.29 62.6772C50.336 62.785 50.348 62.9028 50.3246 63.0171C50.3011 63.1314 50.2433 63.2357 50.1584 63.3182C50.0735 63.4007 49.9654 63.4567 49.8476 63.4791C49.7298 63.502 49.6077 63.4903 49.4968 63.4455C49.3859 63.4013 49.291 63.3259 49.2243 63.2293C49.1576 63.1326 49.122 63.0189 49.122 62.9023C49.1223 62.7467 49.1864 62.597 49.3002 62.4869C49.4139 62.3767 49.5682 62.3142 49.7291 62.3142Z" fill="url(#paint17_linear_1_66)"/>
<path d="M49.7188 74.6743C50.0052 74.6754 50.2797 74.7856 50.4822 74.9818C50.6847 75.178 50.7988 75.4437 50.7997 75.7212V84.0341C50.7997 84.3116 50.6857 84.5779 50.483 84.7747C50.2801 84.9709 50.0051 85.0811 49.7183 85.0811C49.4316 85.0811 49.1565 84.9709 48.9537 84.7747C48.7509 84.5779 48.637 84.3116 48.637 84.0341V75.7212C48.6381 75.4437 48.7524 75.178 48.955 74.9818C49.1577 74.7856 49.4323 74.6748 49.7188 74.6743Z" fill="url(#paint18_linear_1_66)"/>
<path d="M54.8183 18.3175H44.6616V23.5113C45.3699 26.9602 45.3699 30.5105 44.6616 33.9594V57.3906C45.342 60.9238 45.342 64.5479 44.6616 68.0806V91.3289C45.3316 94.884 45.3316 98.5276 44.6616 102.082V108.021H54.8183V101.98C54.1579 98.4651 54.1579 94.864 54.8183 91.3501V67.9598C54.1063 64.4907 54.1063 60.9202 54.8183 57.4511V33.9187C54.1265 30.4546 54.1265 26.8942 54.8183 23.43V18.3175ZM51.0692 85.0723C51.0692 85.4187 50.9269 85.7516 50.6735 85.9973C50.4202 86.243 50.0766 86.3803 49.7184 86.3803C49.3601 86.3803 49.0165 86.243 48.7631 85.9973C48.5098 85.7516 48.3675 85.4187 48.3675 85.0723V74.6843C48.3675 74.3372 48.5098 74.0043 48.7631 73.7592C49.0165 73.5135 49.3601 73.3757 49.7184 73.3757C50.0766 73.3757 50.4202 73.5135 50.6735 73.7592C50.9269 74.0043 51.0692 74.3372 51.0692 74.6843V85.0723ZM51.0692 51.074C51.0692 51.2458 51.0342 51.4161 50.9664 51.5748C50.8985 51.7336 50.799 51.8778 50.6735 51.9993C50.5481 52.1209 50.3992 52.2172 50.2353 52.283C50.0715 52.3488 49.8958 52.3826 49.7184 52.3826C49.541 52.3826 49.3653 52.3488 49.2014 52.283C49.0375 52.2172 48.8886 52.1209 48.7631 51.9993C48.6377 51.8778 48.5382 51.7336 48.4703 51.5748C48.4024 51.4161 48.3675 51.2458 48.3675 51.074V40.6883C48.3675 40.5165 48.4024 40.3463 48.4703 40.1875C48.5382 40.0287 48.6377 39.8845 48.7631 39.763C48.8886 39.6415 49.0375 39.5451 49.2014 39.4793C49.3653 39.4136 49.541 39.3797 49.7184 39.3797C49.8958 39.3797 50.0715 39.4136 50.2353 39.4793C50.3992 39.5451 50.5481 39.6415 50.6735 39.763C50.799 39.8845 50.8985 40.0287 50.9664 40.1875C51.0342 40.3463 51.0692 40.5165 51.0692 40.6883V51.074Z" fill="url(#paint19_linear_1_66)"/>
<path d="M49.7188 40.6777C50.0051 40.6787 50.2795 40.7893 50.4819 40.9854C50.6845 41.1817 50.7987 41.4475 50.7997 41.7248V50.0372C50.7997 50.315 50.6857 50.5815 50.483 50.7779C50.2801 50.9744 50.0051 51.0847 49.7183 51.0847C49.4316 51.0847 49.1565 50.9744 48.9537 50.7779C48.7509 50.5815 48.637 50.315 48.637 50.0372V41.7248C48.6381 41.4473 48.7526 41.1816 48.9552 40.9854C49.1579 40.7892 49.4323 40.6786 49.7188 40.6777Z" fill="url(#paint20_linear_1_66)"/>
<path d="M54.7322 58.5702C54.7909 58.1966 54.8533 57.8231 54.9277 57.4511L54.9251 33.8959C54.8722 33.6651 54.8309 33.4183 54.7864 33.1762C55.8696 31.9862 56.4627 30.4515 56.4526 28.8649C56.4425 27.2783 55.8299 25.7508 54.7316 24.5738C54.7901 24.1882 54.8531 23.8046 54.9277 23.4298V18.3172C54.9277 18.3028 54.9173 18.2929 54.9121 18.2804C54.9097 18.2747 54.915 18.2687 54.9118 18.2633L53.9228 16.6541V8.29389H54.4829C54.5119 8.29395 54.5398 8.28275 54.5603 8.26296C54.5809 8.2431 54.5925 8.21618 54.5927 8.18807V6.23915C54.5925 6.22478 54.5892 6.21052 54.5831 6.19738C54.5768 6.18418 54.568 6.17246 54.5567 6.16291L54.5562 6.16061L54.242 5.88534C54.222 5.86773 54.1957 5.85801 54.1687 5.85806H52.0491L52.1678 5.73369C52.1867 5.71371 52.1971 5.68759 52.1969 5.66058C52.1966 5.63357 52.1857 5.60764 52.1665 5.58804L51.8836 5.29957L52.1573 5.0702C52.1683 5.06089 52.1773 5.0495 52.1836 5.03677C52.1901 5.02403 52.1938 5.0102 52.1947 4.99611C52.1956 4.98211 52.1935 4.9682 52.1888 4.95501C52.184 4.94182 52.1765 4.92971 52.1669 4.91932L51.8882 4.61939L52.1591 4.36968C52.1696 4.36002 52.1781 4.34845 52.184 4.33562C52.1899 4.3227 52.1931 4.30888 52.1933 4.29479C52.1935 4.28078 52.1909 4.26678 52.1855 4.25377C52.1801 4.24067 52.1721 4.22884 52.1618 4.21881L51.8914 3.95148L52.1605 3.70187C52.1813 3.68254 52.1934 3.65598 52.1941 3.62806C52.1948 3.60006 52.184 3.57304 52.1641 3.5528L51.8809 3.26073L52.1592 2.98455C52.1792 2.96477 52.1904 2.93821 52.1904 2.91047C52.1904 2.88274 52.1792 2.85618 52.1592 2.83639L51.8872 2.56726L52.1573 2.31231C52.1779 2.2928 52.1898 2.26624 52.1903 2.23832C52.1908 2.21041 52.1799 2.18349 52.16 2.16325L51.8773 1.8765L52.151 1.60827L52.1521 1.60584C52.1625 1.59608 52.1707 1.58443 52.1765 1.57151C52.1821 1.55859 52.185 1.54468 52.1851 1.53067C52.1848 1.51568 52.1811 1.50095 52.1743 1.48749C52.1674 1.47412 52.1576 1.46228 52.1455 1.45298L51.8882 1.18484L52.1564 0.906047C52.1619 0.900356 52.1559 0.891683 52.16 0.885178C52.1746 0.868822 52.1834 0.848313 52.1851 0.826631C52.1851 0.816697 52.1767 0.810192 52.1741 0.800977C52.1728 0.797095 52.1779 0.793389 52.176 0.789594L51.8308 0.0617052C51.8221 0.0432753 51.808 0.0276459 51.7904 0.0167147C51.7726 0.00578346 51.7521 -8.89824e-05 51.7311 1.16359e-06H47.7945C47.7748 -8.89824e-05 47.7553 0.00506053 47.7383 0.0148175C47.7213 0.0245745 47.7073 0.0386679 47.698 0.0555623L47.5052 0.404647L47.5001 0.413862L47.295 0.785169C47.2837 0.805673 47.2796 0.82907 47.2833 0.852019C47.287 0.874968 47.2983 0.896108 47.3155 0.912187L47.6078 1.18304L47.3341 1.45307C47.3143 1.4724 47.3029 1.49851 47.3024 1.52579C47.302 1.55317 47.3126 1.57955 47.3319 1.59951L47.5974 1.8756L47.3489 2.15647C47.3365 2.16578 47.3265 2.17761 47.3194 2.19116C47.3124 2.20463 47.3086 2.21953 47.3082 2.23471C47.3085 2.24935 47.3119 2.2638 47.3184 2.27708C47.3249 2.29036 47.3342 2.30211 47.3458 2.31159L47.3478 2.31584L47.6146 2.55055L47.3351 2.81696C47.3238 2.82862 47.3154 2.84262 47.3107 2.85789C47.3061 2.87325 47.3052 2.88942 47.3082 2.90514V2.90523L47.3091 2.90713C47.3102 2.92791 47.3178 2.94787 47.331 2.96432L47.3359 2.96955C47.3397 2.97461 47.3441 2.97922 47.3489 2.98338L47.6047 3.25549L47.3327 3.52986C47.3216 3.54179 47.3136 3.55615 47.3095 3.57169C47.3053 3.58722 47.3051 3.60358 47.3089 3.6192L47.3082 3.62074C47.3089 3.63782 47.3142 3.65435 47.3234 3.6689C47.3326 3.68344 47.3456 3.69545 47.361 3.70377L47.5996 3.93215L47.3241 4.2021C47.3139 4.21212 47.3058 4.22405 47.3003 4.23715C47.2948 4.25025 47.2921 4.26425 47.2923 4.27844C47.2924 4.29253 47.2955 4.30644 47.3013 4.31945C47.3071 4.33237 47.3155 4.34411 47.326 4.35387L47.5993 4.60801L47.3128 4.89475C47.3026 4.90505 47.2947 4.91734 47.2894 4.9307C47.2841 4.94408 47.2817 4.95835 47.2823 4.97271C47.2828 4.98699 47.2864 5.00108 47.2926 5.014C47.2989 5.02701 47.3077 5.03867 47.3187 5.04824L47.6133 5.30147L47.3146 5.58551C47.3041 5.5959 47.2958 5.60809 47.2901 5.62164C47.2845 5.6351 47.2817 5.64947 47.2819 5.66402C47.2823 5.67865 47.2858 5.69301 47.2923 5.70623C47.2986 5.71937 47.3078 5.73121 47.3191 5.74082L47.4567 5.85818H45.3734C45.3496 5.85801 45.3264 5.86549 45.3073 5.87928L44.9308 6.1546L44.9289 6.16044C44.9161 6.16969 44.9057 6.18147 44.8983 6.19514C44.891 6.20875 44.8869 6.22389 44.8866 6.23933V8.18819C44.8867 8.21629 44.8982 8.24328 44.9188 8.26308C44.9394 8.28293 44.9672 8.29407 44.9962 8.29407H45.5568V16.6688L44.5673 18.2635C44.5638 18.2691 44.5694 18.2759 44.5672 18.2819C44.5621 18.294 44.5519 18.3036 44.5519 18.3174L44.5542 23.5314C44.6211 23.872 44.6757 24.2144 44.7299 24.5567C43.6227 25.7414 43.0066 27.2809 43.0001 28.879C42.9935 30.4771 43.5969 32.0212 44.6945 33.2145C44.6484 33.464 44.606 33.7161 44.5519 33.9596L44.5537 57.4089C44.6239 57.7914 44.682 58.1729 44.7376 58.554C43.6249 59.7383 43.0057 61.2808 43.0001 62.8828C42.9945 64.4842 43.6027 66.0308 44.707 67.2228C44.6582 67.5103 44.611 67.799 44.552 68.0806L44.5538 91.3483C44.6221 91.726 44.6855 92.1307 44.7434 92.5526C43.6192 93.7416 42.997 95.2959 43.0001 96.9079C43.0015 98.5052 43.6095 100.046 44.7082 101.237C44.6586 101.521 44.6142 101.808 44.552 102.083V108.021C44.552 108.036 44.5627 108.047 44.5687 108.059C44.5715 108.068 44.5647 108.077 44.5698 108.084L45.0087 108.737C45.0188 108.752 45.0324 108.764 45.0485 108.772C45.0646 108.781 45.0825 108.785 45.1007 108.785H54.3987C54.4172 108.785 54.4355 108.781 54.4518 108.772C54.468 108.764 54.4817 108.751 54.4916 108.735L54.911 108.082C54.9156 108.075 54.9089 108.067 54.9117 108.059C54.9173 108.046 54.9279 108.035 54.9279 108.021L54.926 101.961C54.8766 101.702 54.8384 101.439 54.7966 101.177C55.8762 99.984 56.4655 98.4474 56.4526 96.8602C56.4397 95.2735 55.8255 93.7457 54.7267 92.5685C54.7853 92.1596 54.8512 91.7519 54.9279 91.3507L54.9255 67.9386C54.8727 67.6888 54.832 67.4349 54.7871 67.1827C55.87 65.9908 56.4628 64.4542 56.4527 62.8663C56.4425 61.2784 55.8302 59.7495 54.7322 58.5703V58.5702ZM47.8469 5.21755L47.6989 5.09043H51.798L51.6533 5.21221C51.6422 5.2217 51.6331 5.23317 51.6268 5.246C51.6203 5.25892 51.6167 5.27292 51.616 5.2872C51.615 5.30156 51.6173 5.31602 51.6225 5.32947C51.6277 5.34302 51.6357 5.35532 51.646 5.3657L51.8261 5.54919H47.6654L47.8511 5.37275C47.8616 5.36245 47.8699 5.35017 47.8755 5.3367C47.8812 5.32325 47.884 5.30879 47.8838 5.29424C47.8832 5.2797 47.8797 5.26542 47.8733 5.25224C47.867 5.23904 47.8581 5.22721 47.8469 5.21755ZM47.8305 4.5285L47.69 4.39787H51.8106L51.6601 4.53636C51.6395 4.55533 51.6274 4.58135 51.6262 4.60891C51.6251 4.63646 51.6352 4.6633 51.6541 4.68371L51.8351 4.87876H47.6338L47.8332 4.67937C47.8433 4.66926 47.8512 4.65733 47.8566 4.64432C47.8619 4.63131 47.8645 4.6174 47.8642 4.6033C47.8639 4.5893 47.8608 4.57548 47.8551 4.56265C47.8493 4.54982 47.841 4.53817 47.8305 4.5285ZM47.8315 3.85527L47.6969 3.72653H51.8172L51.6596 3.87298C51.6387 3.89277 51.6266 3.91969 51.626 3.94796C51.6258 3.96197 51.6284 3.97588 51.6338 3.98889C51.6392 4.00199 51.6472 4.01382 51.6573 4.02385L51.8218 4.18619H47.6491L47.8323 4.00614C47.8425 3.9962 47.8505 3.98446 47.856 3.97145C47.8615 3.95844 47.8642 3.94462 47.8641 3.93061C47.864 3.91652 47.8611 3.9027 47.8555 3.88978C47.8498 3.87686 47.8417 3.86521 47.8314 3.85536L47.8315 3.85527ZM47.8356 3.18566L47.6717 3.01102H51.8268L51.651 3.18566C51.6312 3.20535 51.62 3.23164 51.6198 3.2591C51.6195 3.28657 51.6302 3.31304 51.6496 3.333L51.8263 3.51477H47.6514L47.8337 3.33038C47.8528 3.31096 47.8636 3.28521 47.8639 3.25838C47.8643 3.23155 47.8541 3.20562 47.8355 3.18574L47.8356 3.18566ZM47.8478 2.46834L47.7018 2.34041H51.8135L51.6555 2.48948C51.6451 2.49923 51.637 2.5108 51.6312 2.52363C51.6255 2.53636 51.6225 2.55019 51.6223 2.5641C51.6222 2.5781 51.6248 2.59192 51.6302 2.60484C51.6355 2.61776 51.6436 2.6296 51.6536 2.63944L51.8153 2.79917H47.6658L47.851 2.62273C47.8616 2.61243 47.87 2.60014 47.8756 2.58669C47.8813 2.57322 47.884 2.55877 47.8838 2.54422C47.8834 2.52986 47.88 2.51577 47.8738 2.50276C47.8677 2.48975 47.8588 2.478 47.8478 2.46842V2.46834ZM47.8246 1.80053L47.667 1.63637H51.8132L51.6463 1.79962C51.6262 1.81931 51.6148 1.84579 51.6145 1.87343C51.6143 1.90116 51.6252 1.92782 51.645 1.94788L51.823 2.12874H47.6622L47.8277 1.94173C47.8453 1.92195 47.8546 1.89656 47.8539 1.87054C47.8534 1.84452 47.8429 1.81959 47.8246 1.80053ZM47.84 1.10444L47.6546 0.932337H51.8316L51.6583 1.11239C51.6394 1.13199 51.6289 1.15783 51.6289 1.18466C51.6289 1.21158 51.6394 1.23742 51.6583 1.25703L51.8196 1.4247H47.6695L47.8419 1.25531C47.8523 1.24537 47.8604 1.23354 47.8659 1.22053C47.8714 1.20743 47.8741 1.19351 47.8737 1.17942C47.8735 1.16533 47.8704 1.1515 47.8646 1.13868C47.8588 1.12585 47.8505 1.1142 47.84 1.10444ZM47.6535 0.585693H51.8381L51.9021 0.720659H47.5789L47.6535 0.585693ZM47.8601 0.211583H51.661L51.738 0.373928H47.7704L47.8601 0.211583ZM47.6741 5.76097H51.843L51.7507 5.85801H47.7877L47.6741 5.76097ZM45.4103 6.06976H47.7351C47.742 6.071 47.7474 6.07677 47.7544 6.07677H51.7917C51.7981 6.07677 51.8024 6.07076 51.8086 6.06976H54.1264L54.1983 6.13327H45.3238L45.4103 6.06976ZM45.1061 6.34503H54.3731V8.08214H45.1061V6.34503ZM54.7083 67.9598L54.7102 91.3312C54.0529 94.8528 54.0523 98.4592 54.7083 101.98V107.915H44.7714L44.7686 102.105C44.8341 101.817 44.8815 101.516 44.933 101.217L44.9341 101.212C45.417 97.9295 45.3621 94.5953 44.7714 91.3294L44.7691 68.1018C44.8308 67.8084 44.8804 67.5073 44.9312 67.2074L44.9334 67.1951C45.4443 63.941 45.3895 60.6268 44.7714 57.3903L44.7686 33.9815C45.477 30.5251 45.4778 26.9677 44.7714 23.5109V18.4239H54.7083L54.7106 23.4095C54.0796 26.6226 54.0283 29.9173 54.5591 33.1473C54.559 33.1595 54.5614 33.1715 54.566 33.1828C54.6117 33.4306 54.654 33.683 54.7083 33.9188L54.7106 57.4308C54 60.9067 53.9992 64.4836 54.7083 67.9598ZM53.7032 16.5888H45.7763V8.29477H53.7032V16.5888ZM45.7304 16.8006H53.7575L54.6244 18.2113H44.8552L45.7304 16.8006ZM56.2333 28.9077C56.2317 30.3687 55.7011 31.7831 54.7338 32.904C54.321 30.2371 54.3058 27.5265 54.6888 24.8554C55.687 25.984 56.2348 27.4215 56.2333 28.9077ZM43.2195 28.9077C43.225 27.4139 43.7771 25.9705 44.7776 24.834C45.1889 27.5226 45.1784 30.2561 44.7465 32.9417C43.7636 31.8128 43.223 30.3845 43.2195 28.9077ZM43.2195 62.9034C43.2242 61.4104 43.7779 59.9681 44.7813 58.8345C45.1668 61.5265 45.1584 64.258 44.7566 66.9482C43.7643 65.8199 43.2194 64.3858 43.2195 62.9034ZM43.2195 96.9079C43.2181 95.4155 43.7713 93.972 44.778 92.8413C45.1425 95.5374 45.136 98.2683 44.7589 100.963C43.7672 99.8303 43.2218 98.3932 43.2195 96.9079ZM54.3376 108.573H45.1598L44.8638 108.132H54.6208L54.3376 108.573ZM56.2333 96.9079C56.2357 98.3649 55.7109 99.7772 54.7503 100.897C54.3589 98.2312 54.3383 95.5262 54.6894 92.8549C55.6899 93.9826 56.2378 95.4208 56.2333 96.9079ZM54.6869 58.8492C55.6764 59.9698 56.2241 61.3939 56.2332 62.8687C56.2422 64.344 55.7119 65.7739 54.7363 66.9064C54.3046 64.2379 54.288 61.5218 54.6869 58.8492Z" fill="#201B18"/>
<path d="M47.6065 15.4067L47.6079 15.4111C48.2453 15.8124 48.9844 16.036 49.7444 16.0569C50.4965 16.0311 51.2278 15.8102 51.8618 15.4173L51.8643 15.4104C51.8786 15.4018 51.8905 15.3897 51.899 15.3755C51.9074 15.3614 51.9122 15.3455 51.9128 15.3291V9.5547C51.9123 9.53861 51.9077 9.52288 51.8995 9.5088C51.8913 9.49472 51.8797 9.48282 51.8658 9.47404L51.8618 9.46302C51.2275 9.07003 50.4959 8.84914 49.7435 8.82339C48.9839 8.84455 48.245 9.06797 47.6079 9.46915L47.6054 9.47763C47.5938 9.48706 47.5843 9.49878 47.5777 9.51216C47.5711 9.52541 47.5676 9.53997 47.5674 9.5547V15.329C47.5677 15.344 47.5713 15.3587 47.5781 15.3721C47.5849 15.3855 47.5946 15.3973 47.6065 15.4067ZM47.7868 9.66057H51.6934V15.2232H47.7868V9.66057ZM49.7444 15.8452C49.1606 15.8212 48.5882 15.6816 48.0623 15.4349H51.3924C50.879 15.6829 50.3175 15.8227 49.7444 15.8452ZM49.7435 9.03503C50.3168 9.05754 50.8788 9.19729 51.3924 9.44528H48.0623C48.5878 9.19877 49.16 9.05907 49.7435 9.03503Z" fill="#201B18"/>
<path d="M49.7294 30.0882C49.9705 30.0881 50.206 30.0186 50.4064 29.8888C50.6067 29.7589 50.7628 29.5744 50.855 29.3585C50.947 29.1427 50.9711 28.9053 50.9239 28.6762C50.8767 28.4472 50.7605 28.2369 50.5899 28.0718C50.4194 27.9068 50.2021 27.7945 49.9657 27.749C49.7292 27.7036 49.4841 27.7271 49.2614 27.8165C49.0387 27.906 48.8485 28.0574 48.7146 28.2517C48.5807 28.4459 48.5094 28.6742 48.5095 28.9077C48.5099 29.221 48.6387 29.5211 48.8674 29.7424C49.0961 29.9637 49.4061 30.0881 49.7294 30.0882ZM49.7294 27.9382C49.9272 27.9382 50.1206 27.995 50.2851 28.1014C50.4496 28.208 50.5778 28.3593 50.6536 28.5364C50.7293 28.7134 50.7491 28.9083 50.7105 29.0963C50.672 29.2842 50.5768 29.4569 50.4369 29.5924C50.297 29.7281 50.1188 29.8204 49.9248 29.8578C49.7308 29.8953 49.5296 29.8761 49.3468 29.8028C49.1639 29.7296 49.0078 29.6054 48.8977 29.4461C48.7877 29.2867 48.729 29.0995 48.7289 28.9077C48.7291 28.6507 48.8345 28.4043 49.0221 28.2225C49.2097 28.0407 49.464 27.9385 49.7294 27.9382Z" fill="#201B18"/>
<path d="M49.7294 29.6012C49.871 29.601 50.0094 29.5602 50.1271 29.4839C50.2448 29.4074 50.3365 29.299 50.3906 29.1722C50.4446 29.0454 50.4587 28.9059 50.4308 28.7712C50.4031 28.6367 50.3348 28.5132 50.2345 28.4162C50.1343 28.3193 50.0067 28.2533 49.8677 28.2266C49.7287 28.2 49.5847 28.2139 49.4539 28.2665C49.323 28.3191 49.2113 28.4081 49.1326 28.5222C49.054 28.6364 49.0121 28.7705 49.0122 28.9077C49.0124 29.0919 49.0881 29.2683 49.2226 29.3983C49.3571 29.5283 49.5393 29.6013 49.7294 29.6012ZM49.7294 28.4253C49.8277 28.4253 49.924 28.4534 50.0058 28.5064C50.0877 28.5594 50.1515 28.6347 50.1892 28.7227C50.2268 28.8108 50.2367 28.9077 50.2176 29.0012C50.1984 29.0948 50.151 29.1807 50.0814 29.2482C50.0119 29.3156 49.9233 29.3615 49.8267 29.3802C49.7302 29.3988 49.6302 29.3893 49.5392 29.353C49.4483 29.3165 49.3705 29.2548 49.3158 29.1755C49.261 29.0963 49.2318 29.0031 49.2317 28.9077C49.2318 28.7799 49.2842 28.6573 49.3775 28.5668C49.4709 28.4764 49.5973 28.4254 49.7294 28.4253Z" fill="#201B18"/>
<path d="M49.7293 95.7289C49.4883 95.7289 49.2527 95.7973 49.0523 95.9275C48.8519 96.0577 48.6957 96.2421 48.6036 96.4578C48.5113 96.674 48.4872 96.9102 48.5343 97.14C48.5813 97.3686 48.6974 97.579 48.8678 97.7445C49.0383 97.9095 49.2555 98.0215 49.4918 98.068C49.7283 98.1128 49.9733 98.0892 50.1961 98.0002C50.4188 97.9113 50.6092 97.7599 50.7432 97.5654C50.8772 97.371 50.9487 97.1436 50.9488 96.9097C50.9483 96.5968 50.8197 96.2963 50.5911 96.0748C50.3625 95.8532 50.0526 95.7289 49.7293 95.7289ZM49.7293 97.8783C49.5315 97.8789 49.338 97.8223 49.1734 97.7157C49.0087 97.609 48.8805 97.4582 48.8047 97.2803C48.7289 97.1029 48.709 96.9085 48.7476 96.7205C48.7863 96.532 48.8816 96.3594 49.0214 96.2238C49.1614 96.0883 49.3397 95.9964 49.5338 95.9593C49.728 95.921 49.9291 95.9404 50.1119 96.0141C50.2948 96.0877 50.451 96.2121 50.561 96.3711C50.6708 96.5308 50.7294 96.7182 50.7293 96.9097C50.7289 97.166 50.6234 97.4128 50.436 97.5943C50.2486 97.7758 49.9944 97.8783 49.7293 97.8783Z" fill="#201B18"/>
<path d="M49.7294 96.2156C49.5877 96.2156 49.4493 96.2562 49.3316 96.3322C49.2138 96.4088 49.1221 96.5173 49.068 96.6439C49.0138 96.7706 48.9996 96.9102 49.0273 97.0452C49.0549 97.1795 49.1232 97.3026 49.2233 97.4005C49.3235 97.4971 49.4511 97.5631 49.5899 97.5902C49.7289 97.6173 49.8729 97.6025 50.0037 97.5501C50.1345 97.4977 50.2465 97.4093 50.3252 97.2956C50.4039 97.1813 50.4459 97.0469 50.4461 96.9097C50.4458 96.7252 50.3701 96.5491 50.2358 96.4189C50.1014 96.2892 49.9193 96.2156 49.7294 96.2156ZM49.7294 97.391C49.6309 97.391 49.5345 97.3633 49.4527 97.3109C49.3708 97.2573 49.3069 97.1825 49.2691 97.0941C49.2314 97.0063 49.2216 96.9085 49.2407 96.8154C49.2599 96.7217 49.3074 96.6357 49.3769 96.5679C49.4466 96.5014 49.5353 96.4554 49.6319 96.436C49.7285 96.4183 49.8286 96.4271 49.9196 96.4642C50.0105 96.5002 50.0882 96.5626 50.143 96.6422C50.1976 96.7205 50.2267 96.8148 50.2266 96.9097C50.2264 97.0381 50.1739 97.1601 50.0807 97.2502C49.9875 97.3404 49.8611 97.391 49.7294 97.391Z" fill="#201B18"/>
<path d="M49.7294 64.0842C49.9705 64.0842 50.2063 64.0146 50.4067 63.8844C50.6072 63.7548 50.7634 63.5704 50.8557 63.3542C50.9479 63.1385 50.9719 62.9011 50.9248 62.6719C50.8778 62.4427 50.7615 62.2323 50.5911 62.0674C50.4205 61.9018 50.2032 61.7893 49.9666 61.7439C49.7301 61.6985 49.4849 61.7215 49.2621 61.8111C49.0393 61.9006 48.8489 62.0521 48.7149 62.2465C48.581 62.4403 48.5095 62.6689 48.5095 62.9028C48.5099 63.2157 48.6386 63.5162 48.8673 63.7377C49.096 63.9593 49.406 64.0836 49.7294 64.0842ZM49.7294 61.933C49.9273 61.933 50.1209 61.9896 50.2855 62.0962C50.4501 62.2029 50.5786 62.3543 50.6544 62.5311C50.7302 62.7084 50.7501 62.9034 50.7115 63.0914C50.6729 63.2799 50.5776 63.4526 50.4377 63.5881C50.2977 63.7236 50.1194 63.8161 49.9252 63.8538C49.7311 63.8909 49.5298 63.8715 49.3468 63.7984C49.1639 63.7248 49.0076 63.6004 48.8976 63.4414C48.7877 63.2817 48.7289 63.0943 48.7289 62.9028C48.7291 62.6454 48.8346 62.3991 49.0221 62.2176C49.2097 62.0356 49.464 61.933 49.7294 61.933Z" fill="#201B18"/>
<path d="M49.7294 63.5963C49.871 63.5957 50.0094 63.5551 50.1271 63.4785C50.2448 63.4025 50.3365 63.2941 50.3906 63.1668C50.4446 63.0401 50.4587 62.9005 50.4308 62.7661C50.4031 62.6318 50.3348 62.5081 50.2345 62.4109C50.1343 62.3142 50.0067 62.2482 49.8677 62.2217C49.7287 62.1946 49.5847 62.2088 49.4539 62.2612C49.323 62.3136 49.2113 62.4026 49.1326 62.5169C49.054 62.6312 49.0121 62.7656 49.0122 62.9028C49.0124 63.0867 49.0881 63.2634 49.2226 63.393C49.3571 63.5233 49.5393 63.5963 49.7294 63.5963ZM49.7294 62.4203C49.8277 62.4203 49.924 62.448 50.0059 62.501C50.0877 62.554 50.1515 62.6294 50.1892 62.7178C50.2268 62.8056 50.2367 62.9028 50.2176 62.9959C50.1984 63.0896 50.151 63.1756 50.0815 63.2428C50.0119 63.3106 49.9233 63.3565 49.8267 63.3748C49.7302 63.3936 49.6302 63.3842 49.5392 63.3477C49.4483 63.3111 49.3705 63.2499 49.3158 63.1703C49.261 63.0914 49.2318 62.9977 49.2317 62.9028C49.2318 62.775 49.2842 62.6524 49.3775 62.5617C49.4709 62.471 49.5973 62.4203 49.7294 62.4203Z" fill="#201B18"/>
<path d="M49.7189 74.5688C49.4031 74.5688 49.1002 74.6902 48.8769 74.9064C48.6534 75.1226 48.5277 75.4155 48.5272 75.7218V84.0341C48.5272 84.3405 48.6527 84.6339 48.8761 84.8495C49.0994 85.0664 49.4023 85.1877 49.7181 85.1877C50.034 85.1877 50.337 85.0664 50.5603 84.8495C50.7837 84.6339 50.9092 84.3405 50.9092 84.0341V75.7218C50.9089 75.416 50.7834 75.1226 50.5602 74.9064C50.337 74.6908 50.0345 74.5688 49.7189 74.5688ZM50.6897 84.0341C50.6901 84.1578 50.6652 84.2804 50.6166 84.3953C50.5679 84.5102 50.4965 84.6139 50.4062 84.7017C50.3159 84.7895 50.2087 84.859 50.0906 84.9067C49.9726 84.9538 49.846 84.978 49.7181 84.978C49.5903 84.978 49.4638 84.9538 49.3457 84.9067C49.2276 84.859 49.1204 84.7895 49.0301 84.7017C48.9399 84.6139 48.8684 84.5102 48.8197 84.3953C48.7711 84.2804 48.7462 84.1578 48.7467 84.0341V75.7218C48.7462 75.5981 48.7711 75.475 48.8197 75.3607C48.8684 75.2464 48.9399 75.1421 49.0301 75.0543C49.1204 74.9665 49.2276 74.897 49.3457 74.8498C49.4638 74.8021 49.5903 74.7774 49.7181 74.7774C49.846 74.7774 49.9726 74.8021 50.0906 74.8498C50.2087 74.897 50.3159 74.9665 50.4062 75.0543C50.4965 75.1421 50.5679 75.2464 50.6166 75.3607C50.6652 75.475 50.6901 75.5981 50.6897 75.7218V84.0341Z" fill="#201B18"/>
<path d="M49.7189 39.2733C49.3315 39.2736 48.96 39.4228 48.6862 39.6881C48.4122 39.9534 48.258 40.3132 48.2576 40.6885V51.0743C48.2571 51.2605 48.2946 51.4448 48.3677 51.6169C48.4409 51.789 48.5484 51.9453 48.6841 52.0771C48.8198 52.2089 48.9809 52.3134 49.1584 52.3848C49.3358 52.456 49.5261 52.4928 49.7181 52.4928C49.9103 52.4928 50.1005 52.456 50.278 52.3848C50.4555 52.3134 50.6166 52.2089 50.7523 52.0771C50.888 51.9453 50.9954 51.789 51.0686 51.6169C51.1418 51.4448 51.1792 51.2605 51.1788 51.0743V40.6885C51.1786 40.3134 51.0247 39.9536 50.751 39.6883C50.4773 39.4231 50.1061 39.2737 49.7189 39.2733ZM50.9593 51.0743C50.9593 51.3931 50.8285 51.6989 50.5958 51.9245C50.363 52.15 50.0473 52.2766 49.7181 52.2766C49.389 52.2766 49.0733 52.15 48.8406 51.9245C48.6078 51.6989 48.4771 51.3931 48.4771 51.0743V40.6885C48.4771 40.3696 48.6078 40.0637 48.8406 39.8383C49.0733 39.6129 49.389 39.4862 49.7181 39.4862C50.0473 39.4862 50.363 39.6129 50.5958 39.8383C50.8285 40.0637 50.9593 40.3696 50.9593 40.6885V51.0743Z" fill="#201B18"/>
<path d="M49.7189 73.2696C49.3316 73.2702 48.9603 73.4193 48.6863 73.6844C48.4124 73.9495 48.2582 74.309 48.2576 74.6843V85.0723C48.2586 85.4458 48.4129 85.8058 48.6867 86.0703C48.9605 86.3343 49.3314 86.4834 49.7181 86.4834C50.1049 86.4834 50.4759 86.3343 50.7497 86.0703C51.0235 85.8058 51.1777 85.4458 51.1788 85.0723V74.6843C51.1784 74.309 51.0244 73.9495 50.7507 73.6844C50.477 73.4193 50.1059 73.2702 49.7189 73.2696ZM50.9592 85.0723C50.9592 85.391 50.8285 85.6962 50.5958 85.9225C50.363 86.1469 50.0473 86.2748 49.7181 86.2748C49.389 86.2748 49.0733 86.1469 48.8406 85.9225C48.6078 85.6962 48.4771 85.391 48.4771 85.0723V74.6843C48.4771 74.3655 48.6078 74.0597 48.8406 73.8341C49.0733 73.6084 49.389 73.4817 49.7181 73.4817C50.0473 73.4817 50.363 73.6084 50.5958 73.8341C50.8285 74.0597 50.9592 74.3655 50.9592 74.6843V85.0723Z" fill="#201B18"/>
<path d="M49.7189 40.572C49.4031 40.5721 49.1002 40.6936 48.8769 40.9098C48.6534 41.126 48.5276 41.4192 48.5272 41.7251V50.0377C48.5272 50.3436 48.6527 50.6371 48.8761 50.8534C49.0994 51.0698 49.4023 51.1914 49.7181 51.1914C50.034 51.1914 50.337 51.0698 50.5603 50.8534C50.7837 50.6371 50.9092 50.3436 50.9092 50.0377V41.7251C50.9089 41.4194 50.7834 41.1263 50.5602 40.9101C50.337 40.6939 50.0345 40.5723 49.7189 40.572ZM50.6897 50.0377C50.6889 50.2867 50.5862 50.5254 50.4041 50.7012C50.2219 50.8771 49.9753 50.9759 49.7181 50.9759C49.461 50.9759 49.2144 50.8771 49.0322 50.7012C48.8502 50.5254 48.7474 50.2867 48.7467 50.0377V41.7251C48.7462 41.6013 48.7711 41.4785 48.8197 41.3641C48.8684 41.2495 48.9399 41.1454 49.0301 41.0577C49.1204 40.97 49.2276 40.9004 49.3457 40.853C49.4638 40.8055 49.5903 40.781 49.7181 40.781C49.846 40.781 49.9726 40.8055 50.0906 40.853C50.2087 40.9004 50.3159 40.97 50.4062 41.0577C50.4965 41.1454 50.5679 41.2495 50.6166 41.3641C50.6652 41.4785 50.6901 41.6013 50.6897 41.7251V50.0377Z" fill="#201B18"/>
<path d="M52.4306 79.4879C52.3509 79.4879 52.2731 79.5109 52.2069 79.5539C52.1407 79.5963 52.0891 79.6576 52.0587 79.7289C52.0282 79.8002 52.0202 79.8785 52.0357 79.954C52.0513 80.0294 52.0896 80.0989 52.1459 80.1537C52.2022 80.2085 52.2739 80.2456 52.352 80.2603C52.4301 80.2757 52.511 80.268 52.5846 80.2385C52.6581 80.2085 52.721 80.159 52.7653 80.0948C52.8095 80.0306 52.8331 79.9551 52.8331 79.878C52.833 79.7743 52.7906 79.6753 52.7151 79.6022C52.6396 79.5292 52.5373 79.4879 52.4306 79.4879ZM52.4306 80.0559C52.3941 80.0565 52.3585 80.0459 52.3281 80.0264C52.2977 80.007 52.274 79.9793 52.2599 79.9469C52.2458 79.9145 52.2421 79.8785 52.2491 79.8438C52.2561 79.809 52.2736 79.7772 52.2993 79.7525C52.3249 79.7271 52.3577 79.71 52.3933 79.703C52.4291 79.6965 52.4662 79.7 52.4999 79.713C52.5335 79.7265 52.5623 79.7495 52.5825 79.779C52.6028 79.8084 52.6136 79.8426 52.6136 79.878C52.6136 79.9251 52.5944 79.9705 52.5601 80.0035C52.5258 80.037 52.4791 80.0559 52.4306 80.0559Z" fill="#201B18"/>
<path d="M52.4305 45.4914C52.351 45.4915 52.2733 45.5144 52.2073 45.5572C52.1413 45.6 52.0898 45.6609 52.0594 45.7321C52.029 45.8032 52.0211 45.8815 52.0367 45.957C52.0522 46.0326 52.0905 46.1019 52.1467 46.1564C52.2028 46.2108 52.2744 46.2479 52.3524 46.2629C52.4304 46.2779 52.5113 46.2703 52.5846 46.2409C52.6581 46.2115 52.7209 46.1616 52.7651 46.0976C52.8094 46.0336 52.833 45.9583 52.8331 45.8813C52.833 45.778 52.7906 45.6788 52.7151 45.6057C52.6395 45.5326 52.5372 45.4915 52.4305 45.4914ZM52.4305 46.0587C52.3942 46.0588 52.3587 46.0484 52.3285 46.0289C52.2981 46.0094 52.2746 45.9816 52.2606 45.9492C52.2467 45.9167 52.243 45.8809 52.2501 45.8464C52.2571 45.8118 52.2747 45.7801 52.3003 45.7552C52.326 45.7303 52.3588 45.7134 52.3944 45.7065C52.43 45.6997 52.4669 45.7033 52.5005 45.7167C52.5341 45.7303 52.5627 45.7531 52.5829 45.7824C52.603 45.8117 52.6137 45.8461 52.6136 45.8813C52.6136 45.9284 52.5943 45.9735 52.56 46.0067C52.5257 46.04 52.4791 46.0587 52.4305 46.0587Z" fill="#201B18"/>
<defs>
<linearGradient id="paint0_linear_1_66" x1="49.7291" y1="103.32" x2="49.7291" y2="90.4987" gradientUnits="userSpaceOnUse">
<stop stop-color="#6B6B6B"/>
<stop offset="0.5" stop-color="#E0E0E0"/>
<stop offset="1" stop-color="#6B6B6B"/>
</linearGradient>
<linearGradient id="paint1_linear_1_66" x1="49.6685" y1="69.3126" x2="49.7824" y2="56.492" gradientUnits="userSpaceOnUse">
<stop stop-color="#6B6B6B"/>
<stop offset="0.5" stop-color="#E0E0E0"/>
<stop offset="1" stop-color="#6B6B6B"/>
</linearGradient>
<linearGradient id="paint2_linear_1_66" x1="49.688" y1="35.318" x2="49.7653" y2="22.4967" gradientUnits="userSpaceOnUse">
<stop stop-color="#6B6B6B"/>
<stop offset="0.5" stop-color="#E0E0E0"/>
<stop offset="1" stop-color="#6B6B6B"/>
</linearGradient>
<linearGradient id="paint3_linear_1_66" x1="47.3917" y1="3.03847" x2="52.0872" y2="3.03847" gradientUnits="userSpaceOnUse">
<stop stop-color="#6B6B6B"/>
<stop offset="0.5" stop-color="#E0E0E0"/>
<stop offset="1" stop-color="#6B6B6B"/>
</linearGradient>
<linearGradient id="paint4_linear_1_66" x1="44.9967" y1="7.21355" x2="54.4829" y2="7.21355" gradientUnits="userSpaceOnUse">
<stop stop-color="#6B6B6B"/>
<stop offset="0.5" stop-color="#E0E0E0"/>
<stop offset="1" stop-color="#6B6B6B"/>
</linearGradient>
<linearGradient id="paint5_linear_1_66" x1="44.9969" y1="6.10153" x2="54.4831" y2="6.10153" gradientUnits="userSpaceOnUse">
<stop stop-color="#6B6B6B"/>
<stop offset="0.5" stop-color="#E0E0E0"/>
<stop offset="1" stop-color="#6B6B6B"/>
</linearGradient>
<linearGradient id="paint6_linear_1_66" x1="45.6669" y1="12.4419" x2="53.813" y2="12.4419" gradientUnits="userSpaceOnUse">
<stop stop-color="#6B6B6B"/>
<stop offset="0.5" stop-color="#E0E0E0"/>
<stop offset="1" stop-color="#6B6B6B"/>
</linearGradient>
<linearGradient id="paint7_linear_1_66" x1="44.6612" y1="17.5068" x2="54.8179" y2="17.5068" gradientUnits="userSpaceOnUse">
<stop stop-color="#6B6B6B"/>
<stop offset="0.5" stop-color="#E0E0E0"/>
<stop offset="1" stop-color="#6B6B6B"/>
</linearGradient>
<linearGradient id="paint8_linear_1_66" x1="44.6621" y1="108.352" x2="54.8189" y2="108.352" gradientUnits="userSpaceOnUse">
<stop stop-color="#6B6B6B"/>
<stop offset="0.5" stop-color="#E0E0E0"/>
<stop offset="1" stop-color="#6B6B6B"/>
</linearGradient>
<linearGradient id="paint9_linear_1_66" x1="47.6773" y1="12.4418" x2="51.803" y2="12.4418" gradientUnits="userSpaceOnUse">
<stop stop-color="#6B6B6B"/>
<stop offset="0.5" stop-color="#E0E0E0"/>
<stop offset="1" stop-color="#6B6B6B"/>
</linearGradient>
<linearGradient id="paint10_linear_1_66" x1="47.6776" y1="9.24013" x2="51.8005" y2="9.24013" gradientUnits="userSpaceOnUse">
<stop stop-color="#6B6B6B"/>
<stop offset="0.5" stop-color="#E0E0E0"/>
<stop offset="1" stop-color="#6B6B6B"/>
</linearGradient>
<linearGradient id="paint11_linear_1_66" x1="47.6776" y1="15.6401" x2="51.8005" y2="15.6401" gradientUnits="userSpaceOnUse">
<stop stop-color="#6B6B6B"/>
<stop offset="0.5" stop-color="#E0E0E0"/>
<stop offset="1" stop-color="#6B6B6B"/>
</linearGradient>
<linearGradient id="paint12_linear_1_66" x1="94.3387" y1="118.387" x2="99.6211" y2="118.387" gradientUnits="userSpaceOnUse">
<stop stop-color="#6B6B6B"/>
<stop offset="0.5" stop-color="#E0E0E0"/>
<stop offset="1" stop-color="#6B6B6B"/>
</linearGradient>
<linearGradient id="paint13_linear_1_66" x1="74.7877" y1="77.8582" x2="76.3686" y2="77.8582" gradientUnits="userSpaceOnUse">
<stop stop-color="#6B6B6B"/>
<stop offset="0.5" stop-color="#E0E0E0"/>
<stop offset="1" stop-color="#6B6B6B"/>
</linearGradient>
<linearGradient id="paint14_linear_1_66" x1="94.3387" y1="348.233" x2="99.6211" y2="348.233" gradientUnits="userSpaceOnUse">
<stop stop-color="#6B6B6B"/>
<stop offset="0.5" stop-color="#E0E0E0"/>
<stop offset="1" stop-color="#6B6B6B"/>
</linearGradient>
<linearGradient id="paint15_linear_1_66" x1="74.7877" y1="234.398" x2="76.3686" y2="234.398" gradientUnits="userSpaceOnUse">
<stop stop-color="#6B6B6B"/>
<stop offset="0.5" stop-color="#E0E0E0"/>
<stop offset="1" stop-color="#6B6B6B"/>
</linearGradient>
<linearGradient id="paint16_linear_1_66" x1="94.3387" y1="233.29" x2="99.6211" y2="233.29" gradientUnits="userSpaceOnUse">
<stop stop-color="#6B6B6B"/>
<stop offset="0.5" stop-color="#E0E0E0"/>
<stop offset="1" stop-color="#6B6B6B"/>
</linearGradient>
<linearGradient id="paint17_linear_1_66" x1="74.7877" y1="156.114" x2="76.3686" y2="156.114" gradientUnits="userSpaceOnUse">
<stop stop-color="#6B6B6B"/>
<stop offset="0.5" stop-color="#E0E0E0"/>
<stop offset="1" stop-color="#6B6B6B"/>
</linearGradient>
<linearGradient id="paint18_linear_1_66" x1="48.637" y1="79.878" x2="50.7997" y2="79.878" gradientUnits="userSpaceOnUse">
<stop stop-color="#6B6B6B"/>
<stop offset="0.5" stop-color="#E0E0E0"/>
<stop offset="1" stop-color="#6B6B6B"/>
</linearGradient>
<linearGradient id="paint19_linear_1_66" x1="44.6617" y1="63.1691" x2="54.8184" y2="63.1691" gradientUnits="userSpaceOnUse">
<stop stop-color="#6B6B6B"/>
<stop offset="0.5" stop-color="#E0E0E0"/>
<stop offset="1" stop-color="#6B6B6B"/>
</linearGradient>
<linearGradient id="paint20_linear_1_66" x1="48.637" y1="45.8813" x2="50.7997" y2="45.8813" gradientUnits="userSpaceOnUse">
<stop stop-color="#6B6B6B"/>
<stop offset="0.5" stop-color="#E0E0E0"/>
<stop offset="1" stop-color="#6B6B6B"/>
</linearGradient>
</defs>
</svg>
