<svg width="50" height="51" viewBox="0 0 50 51" fill="none" xmlns="http://www.w3.org/2000/svg">
<rect x="15" y="5" width="10" height="39" rx="1" fill="#3182CE"/>
<rect x="1" y="19" width="40" height="6" rx="1" fill="#3182CE"/>
<rect x="9.94366" y="43.4039" width="20.1367" height="6.8461" rx="1" fill="#3182CE"/>
<rect x="19.7003" y="3.07411" width="0.997484" height="5.97478" fill="#3182CE"/>
<ellipse cx="20.1944" cy="2.12824" rx="2.13184" ry="2.12824" fill="#3182CE"/>
<circle r="4.608" transform="matrix(0.707705 0.706508 -0.707705 0.706508 35.2299 22.2177)" stroke="#595959"/>
<line y1="-0.5" x2="9.55132" y2="-0.5" transform="matrix(-0.705155 0.709045 -0.710246 -0.703962 38.2506 18.4605)" stroke="#595959"/>
<line y1="-0.5" x2="9.55132" y2="-0.5" transform="matrix(-0.707705 -0.706508 0.707705 -0.706508 39.142 25.5299)" stroke="#595959"/>
<circle r="1.39945" transform="matrix(0.707705 0.706508 -0.707705 0.706508 35.2299 22.2177)" fill="#595959"/>
<circle r="4.608" transform="matrix(0.707705 0.706508 -0.707705 0.706508 7.22992 22.2177)" stroke="#595959"/>
<line y1="-0.5" x2="9.55132" y2="-0.5" transform="matrix(-0.705155 0.709045 -0.710246 -0.703962 10.2506 18.4605)" stroke="#595959"/>
<line y1="-0.5" x2="9.55132" y2="-0.5" transform="matrix(-0.707705 -0.706508 0.707705 -0.706508 11.142 25.5299)" stroke="#595959"/>
<circle r="1.39945" transform="matrix(0.707705 0.706508 -0.707705 0.706508 7.22992 22.2177)" fill="#595959"/>
<circle r="7.33201" transform="matrix(0.707705 0.706508 -0.707705 0.706508 20.0855 34.0668)" stroke="#595959"/>
<line y1="-0.5" x2="14.6449" y2="-0.5" transform="matrix(-0.705155 0.709045 -0.710246 -0.703962 24.7171 28.306)" stroke="#595959"/>
<line y1="-0.5" x2="14.6449" y2="-0.5" transform="matrix(-0.707705 -0.706508 0.707705 -0.706508 26.0838 39.1453)" stroke="#595959"/>
<circle r="2.14576" transform="matrix(0.707705 0.706508 -0.707705 0.706508 20.0855 34.0667)" fill="#595959"/>
<circle r="5.29491" transform="matrix(0.707705 0.706508 -0.707705 0.706508 20.2022 12.1883)" stroke="#595959"/>
<line y1="-0.5" x2="10.8358" y2="-0.5" transform="matrix(-0.705155 0.709045 -0.710246 -0.703962 23.6292 7.9259)" stroke="#595959"/>
<line y1="-0.5" x2="10.8358" y2="-0.5" transform="matrix(-0.707705 -0.706508 0.707705 -0.706508 24.6404 15.946)" stroke="#595959"/>
<circle r="1.58765" transform="matrix(0.707705 0.706508 -0.707705 0.706508 20.2022 12.1883)" fill="#595959"/>
<path d="M41 22H43.4308C44.5353 22 45.4308 22.8954 45.4308 24V44C45.4308 45.1046 46.3262 46 47.4308 46H50" stroke="#3182CE" stroke-width="2"/>
</svg>
